<svg id="visual" viewBox="0 0 3440 1400" width="3440" height="1400" xmlns="http://www.w3.org/2000/svg" xmlns:xlink="http://www.w3.org/1999/xlink" version="1.1"><rect x="0" y="0" width="3440" height="1400" fill="#012B53"></rect><defs><linearGradient id="grad1_0" x1="59.3%" y1="0%" x2="100%" y2="100%"><stop offset="0.8571428571428541%" stop-color="#ef800d" stop-opacity="1"></stop><stop offset="99.14285714285715%" stop-color="#ef800d" stop-opacity="1"></stop></linearGradient></defs><defs><linearGradient id="grad1_1" x1="59.3%" y1="0%" x2="100%" y2="100%"><stop offset="0.8571428571428541%" stop-color="#ef800d" stop-opacity="1"></stop><stop offset="99.14285714285715%" stop-color="#ec5d3a" stop-opacity="1"></stop></linearGradient></defs><defs><linearGradient id="grad1_2" x1="59.3%" y1="0%" x2="100%" y2="100%"><stop offset="0.8571428571428541%" stop-color="#da4256" stop-opacity="1"></stop><stop offset="99.14285714285715%" stop-color="#ec5d3a" stop-opacity="1"></stop></linearGradient></defs><defs><linearGradient id="grad1_3" x1="59.3%" y1="0%" x2="100%" y2="100%"><stop offset="0.8571428571428541%" stop-color="#da4256" stop-opacity="1"></stop><stop offset="99.14285714285715%" stop-color="#bb356a" stop-opacity="1"></stop></linearGradient></defs><defs><linearGradient id="grad1_4" x1="59.3%" y1="0%" x2="100%" y2="100%"><stop offset="0.8571428571428541%" stop-color="#923475" stop-opacity="1"></stop><stop offset="99.14285714285715%" stop-color="#bb356a" stop-opacity="1"></stop></linearGradient></defs><defs><linearGradient id="grad1_5" x1="59.3%" y1="0%" x2="100%" y2="100%"><stop offset="0.8571428571428541%" stop-color="#923475" stop-opacity="1"></stop><stop offset="99.14285714285715%" stop-color="#653575" stop-opacity="1"></stop></linearGradient></defs><defs><linearGradient id="grad1_6" x1="59.3%" y1="0%" x2="100%" y2="100%"><stop offset="0.8571428571428541%" stop-color="#363368" stop-opacity="1"></stop><stop offset="99.14285714285715%" stop-color="#653575" stop-opacity="1"></stop></linearGradient></defs><defs><linearGradient id="grad1_7" x1="59.3%" y1="0%" x2="100%" y2="100%"><stop offset="0.8571428571428541%" stop-color="#363368" stop-opacity="1"></stop><stop offset="99.14285714285715%" stop-color="#012b53" stop-opacity="1"></stop></linearGradient></defs><defs><linearGradient id="grad2_0" x1="0%" y1="0%" x2="40.7%" y2="100%"><stop offset="0.8571428571428541%" stop-color="#ef800d" stop-opacity="1"></stop><stop offset="99.14285714285715%" stop-color="#ef800d" stop-opacity="1"></stop></linearGradient></defs><defs><linearGradient id="grad2_1" x1="0%" y1="0%" x2="40.7%" y2="100%"><stop offset="0.8571428571428541%" stop-color="#ec5d3a" stop-opacity="1"></stop><stop offset="99.14285714285715%" stop-color="#ef800d" stop-opacity="1"></stop></linearGradient></defs><defs><linearGradient id="grad2_2" x1="0%" y1="0%" x2="40.7%" y2="100%"><stop offset="0.8571428571428541%" stop-color="#ec5d3a" stop-opacity="1"></stop><stop offset="99.14285714285715%" stop-color="#da4256" stop-opacity="1"></stop></linearGradient></defs><defs><linearGradient id="grad2_3" x1="0%" y1="0%" x2="40.7%" y2="100%"><stop offset="0.8571428571428541%" stop-color="#bb356a" stop-opacity="1"></stop><stop offset="99.14285714285715%" stop-color="#da4256" stop-opacity="1"></stop></linearGradient></defs><defs><linearGradient id="grad2_4" x1="0%" y1="0%" x2="40.7%" y2="100%"><stop offset="0.8571428571428541%" stop-color="#bb356a" stop-opacity="1"></stop><stop offset="99.14285714285715%" stop-color="#923475" stop-opacity="1"></stop></linearGradient></defs><defs><linearGradient id="grad2_5" x1="0%" y1="0%" x2="40.7%" y2="100%"><stop offset="0.8571428571428541%" stop-color="#653575" stop-opacity="1"></stop><stop offset="99.14285714285715%" stop-color="#923475" stop-opacity="1"></stop></linearGradient></defs><defs><linearGradient id="grad2_6" x1="0%" y1="0%" x2="40.7%" y2="100%"><stop offset="0.8571428571428541%" stop-color="#653575" stop-opacity="1"></stop><stop offset="99.14285714285715%" stop-color="#363368" stop-opacity="1"></stop></linearGradient></defs><defs><linearGradient id="grad2_7" x1="0%" y1="0%" x2="40.7%" y2="100%"><stop offset="0.8571428571428541%" stop-color="#012b53" stop-opacity="1"></stop><stop offset="99.14285714285715%" stop-color="#363368" stop-opacity="1"></stop></linearGradient></defs><g transform="translate(3440, 0)"><path d="M0 1400C-154.6 1312.5 -309.3 1225 -484.9 1170.6C-660.5 1116.1 -857 1094.8 -989.9 989.9C-1122.9 885.1 -1192.3 696.7 -1250 517.8C-1307.8 338.9 -1353.9 169.4 -1400 0L0 0Z" fill="#1e2f5f"></path><path d="M0 1225C-135.3 1148.4 -270.6 1071.9 -424.3 1024.2C-577.9 976.6 -749.9 958 -866.2 866.2C-982.5 774.5 -1043.2 609.6 -1093.8 453C-1144.3 296.5 -1184.6 148.2 -1225 0L0 0Z" fill="#4d3570"></path><path d="M0 1050C-116 984.4 -232 918.7 -363.6 877.9C-495.3 837.1 -642.7 821.1 -742.5 742.5C-842.2 663.8 -894.2 522.5 -937.5 388.3C-980.8 254.1 -1015.4 127.1 -1050 0L0 0Z" fill="#7c3576"></path><path d="M0 875C-96.6 820.3 -193.3 765.6 -303 731.6C-412.8 697.6 -535.6 684.3 -618.7 618.7C-701.8 553.2 -745.2 435.4 -781.3 323.6C-817.3 211.8 -846.2 105.9 -875 0L0 0Z" fill="#a83471"></path><path d="M0 700C-77.3 656.2 -154.6 612.5 -242.4 585.3C-330.2 558.1 -428.5 547.4 -495 495C-561.5 442.5 -596.1 348.3 -625 258.9C-653.9 169.4 -676.9 84.7 -700 0L0 0Z" fill="#cc3961"></path><path d="M0 525C-58 492.2 -116 459.4 -181.8 439C-247.7 418.6 -321.4 410.6 -371.2 371.2C-421.1 331.9 -447.1 261.3 -468.8 194.2C-490.4 127.1 -507.7 63.5 -525 0L0 0Z" fill="#e54e49"></path><path d="M0 350C-38.7 328.1 -77.3 306.2 -121.2 292.6C-165.1 279 -214.2 273.7 -247.5 247.5C-280.7 221.3 -298.1 174.2 -312.5 129.4C-326.9 84.7 -338.5 42.4 -350 0L0 0Z" fill="#ef6e29"></path><path d="M0 175C-19.3 164.1 -38.7 153.1 -60.6 146.3C-82.6 139.5 -107.1 136.9 -123.7 123.7C-140.4 110.6 -149 87.1 -156.3 64.7C-163.5 42.4 -169.2 21.2 -175 0L0 0Z" fill="#ef800d"></path></g><g transform="translate(0, 1400)"><path d="M0 -1400C184.3 -1346.5 368.6 -1293 491.7 -1187.2C614.9 -1081.4 676.7 -923.4 818.8 -818.8C960.9 -714.3 1183.2 -663.3 1293.4 -535.8C1403.7 -408.2 1401.8 -204.1 1400 0L0 0Z" fill="#1e2f5f"></path><path d="M0 -1225C161.3 -1178.2 322.6 -1131.3 430.3 -1038.8C538 -946.2 592.1 -807.9 716.5 -716.5C840.8 -625 1035.3 -580.4 1131.8 -468.8C1228.2 -357.2 1226.6 -178.6 1225 0L0 0Z" fill="#4d3570"></path><path d="M0 -1050C138.2 -1009.9 276.5 -969.7 368.8 -890.4C461.1 -811.1 507.6 -692.5 614.1 -614.1C720.7 -535.7 887.4 -497.5 970.1 -401.8C1052.7 -306.2 1051.4 -153.1 1050 0L0 0Z" fill="#7c3576"></path><path d="M0 -875C115.2 -841.6 230.4 -808.1 307.3 -742C384.3 -675.9 423 -577.1 511.8 -511.8C600.6 -446.4 739.5 -414.6 808.4 -334.8C877.3 -255.1 876.1 -127.6 875 0L0 0Z" fill="#a83471"></path><path d="M0 -700C92.2 -673.2 184.3 -646.5 245.9 -593.6C307.4 -540.7 338.4 -461.7 409.4 -409.4C480.5 -357.2 591.6 -331.7 646.7 -267.9C701.8 -204.1 700.9 -102.1 700 0L0 0Z" fill="#cc3961"></path><path d="M0 -525C69.1 -504.9 138.2 -484.9 184.4 -445.2C230.6 -405.5 253.8 -346.3 307.1 -307.1C360.3 -267.9 443.7 -248.7 485 -200.9C526.4 -153.1 525.7 -76.5 525 0L0 0Z" fill="#e54e49"></path><path d="M0 -350C46.1 -336.6 92.2 -323.2 122.9 -296.8C153.7 -270.4 169.2 -230.8 204.7 -204.7C240.2 -178.6 295.8 -165.8 323.4 -133.9C350.9 -102.1 350.5 -51 350 0L0 0Z" fill="#ef6e29"></path><path d="M0 -175C23 -168.3 46.1 -161.6 61.5 -148.4C76.9 -135.2 84.6 -115.4 102.4 -102.4C120.1 -89.3 147.9 -82.9 161.7 -67C175.5 -51 175.2 -25.5 175 0L0 0Z" fill="#ef800d"></path></g></svg>