<?xml version="1.0" encoding="UTF-8" standalone="no"?>
<!-- Created with Inkscape (http://www.inkscape.org/) -->

<svg
   width="3440mm"
   height="1438mm"
   viewBox="0 0 3440 1438"
   version="1.1"
   id="svg5"
   xml:space="preserve"
   inkscape:version="1.2.2 (b0a8486541, 2022-12-01)"
   sodipodi:docname="disco2.svg"
   xmlns:inkscape="http://www.inkscape.org/namespaces/inkscape"
   xmlns:sodipodi="http://sodipodi.sourceforge.net/DTD/sodipodi-0.dtd"
   xmlns="http://www.w3.org/2000/svg"
   xmlns:svg="http://www.w3.org/2000/svg"><sodipodi:namedview
     id="namedview7"
     pagecolor="#ffffff"
     bordercolor="#000000"
     borderopacity="0.25"
     inkscape:showpageshadow="2"
     inkscape:pageopacity="0.0"
     inkscape:pagecheckerboard="0"
     inkscape:deskcolor="#d1d1d1"
     inkscape:document-units="mm"
     showgrid="false"
     inkscape:zoom="0.098963096"
     inkscape:cx="8664.8461"
     inkscape:cy="4602.7259"
     inkscape:window-width="1478"
     inkscape:window-height="1305"
     inkscape:window-x="35"
     inkscape:window-y="32"
     inkscape:window-maximized="0"
     inkscape:current-layer="layer1" /><defs
     id="defs2" /><g
     inkscape:label="Layer 1"
     inkscape:groupmode="layer"
     id="layer1"><rect
       style="opacity:1;fill:#832ad0;fill-opacity:1;stroke:#832ad0;stroke-width:258.05;stroke-linecap:round;stroke-linejoin:round;stroke-dasharray:none;stroke-opacity:1"
       id="rect9577"
       width="4224.2393"
       height="1974.4684"
       x="-131.95024"
       y="-287.50204" /><path
       sodipodi:type="star"
       style="opacity:1;fill:#6453e6;fill-opacity:1;stroke:#6453e6;stroke-width:55.8181;stroke-linecap:round;stroke-linejoin:round;stroke-dasharray:none;stroke-opacity:1"
       id="path9178"
       inkscape:flatsided="true"
       sodipodi:sides="6"
       sodipodi:cx="2043.8701"
       sodipodi:cy="430.41861"
       sodipodi:r1="334.09531"
       sodipodi:r2="289.33502"
       sodipodi:arg1="1.5130516"
       sodipodi:arg2="2.0366504"
       inkscape:rounded="0"
       inkscape:randomized="0"
       d="M 2063.1516,763.95706 1764.6581,613.88612 1745.3766,280.34767 2024.5886,96.880161 2323.0821,246.9511 2342.3636,580.48955 Z"
       inkscape:transform-center-x="-0.0011418965"
       inkscape:transform-center-y="0.00017172234"
       transform="matrix(3.2449973,3.2778608,-3.2798194,3.2732893,-3154.9218,-7457.8606)" /><path
       sodipodi:type="star"
       style="opacity:1;fill:#0087fe;fill-opacity:1;stroke:#0087fe;stroke-width:85.3063;stroke-linecap:round;stroke-linejoin:round;stroke-dasharray:none;stroke-opacity:1"
       id="path8417"
       inkscape:flatsided="true"
       sodipodi:sides="6"
       sodipodi:cx="2043.8701"
       sodipodi:cy="430.41861"
       sodipodi:r1="334.09531"
       sodipodi:r2="289.33502"
       sodipodi:arg1="1.5130516"
       sodipodi:arg2="2.0366504"
       inkscape:rounded="0"
       inkscape:randomized="0"
       d="M 2063.1516,763.95706 1764.6581,613.88612 1745.3766,280.34767 2024.5886,96.880161 2323.0821,246.9511 2342.3636,580.48955 Z"
       inkscape:transform-center-x="-0.00077150665"
       inkscape:transform-center-y="-4.9150615e-05"
       transform="matrix(2.4652788,1.7409119,-1.7415905,2.4818961,-2225.5749,-3903.717)" /><path
       sodipodi:type="star"
       style="opacity:0.663783;fill:#1f3d3b;stroke:#333333;stroke-width:0.0499999;stroke-linecap:round"
       id="path407"
       inkscape:flatsided="true"
       sodipodi:sides="6"
       sodipodi:cx="52.97068"
       sodipodi:cy="34.281654"
       sodipodi:r1="29.433512"
       sodipodi:r2="25.49017"
       sodipodi:arg1="2.6309155"
       sodipodi:arg2="3.1545142"
       inkscape:rounded="0"
       inkscape:randomized="0"
       d="M 27.29248,48.667816 27.672798,19.236762 53.350998,4.8505998 78.64888,19.895492 78.268562,49.326547 52.590362,63.712709 Z"
       transform="translate(3509.1026,-98.453137)" /><path
       sodipodi:type="star"
       style="opacity:1;fill:#00bfff;fill-opacity:1;stroke:#00bfff;stroke-width:103.68788403;stroke-linecap:round;stroke-linejoin:round;stroke-dasharray:none;stroke-opacity:1"
       id="path6966"
       inkscape:flatsided="true"
       sodipodi:sides="6"
       sodipodi:cx="2043.8701"
       sodipodi:cy="430.41861"
       sodipodi:r1="334.09531"
       sodipodi:r2="289.33502"
       sodipodi:arg1="1.5130516"
       sodipodi:arg2="2.0366504"
       inkscape:rounded="0"
       inkscape:randomized="0"
       d="M 2063.1516,763.95706 1764.6581,613.88612 1745.3766,280.34767 2024.5886,96.880161 2323.0821,246.9511 2342.3636,580.48955 Z"
       inkscape:transform-center-x="-0.00025489353"
       inkscape:transform-center-y="-0.00012589201"
       transform="matrix(1.7432,0.81741233,-0.81759628,1.7509233,-1133.8015,-1703.872)" /><path
       sodipodi:type="star"
       style="opacity:1;fill:#00eaeb;fill-opacity:1;stroke:#00eaeb;stroke-width:84.4139;stroke-linecap:round;stroke-linejoin:round;stroke-dasharray:none;stroke-opacity:1"
       id="path4411"
       inkscape:flatsided="true"
       sodipodi:sides="6"
       sodipodi:cx="2043.8701"
       sodipodi:cy="430.41861"
       sodipodi:r1="334.09531"
       sodipodi:r2="289.33502"
       sodipodi:arg1="1.5130516"
       sodipodi:arg2="2.0366504"
       inkscape:rounded="0"
       inkscape:randomized="0"
       d="M 2063.1516,763.95706 1764.6581,613.88612 1745.3766,280.34767 2024.5886,96.880161 2323.0821,246.9511 2342.3636,580.48955 Z"
       inkscape:transform-center-x="-9.4182607e-05"
       inkscape:transform-center-y="-3.249552e-05"
       transform="matrix(1.1639428,0.29467767,-0.29581558,1.1660251,-173.48036,-367.61747)" /><path
       sodipodi:type="star"
       style="opacity:1;fill:#00f5d7;fill-opacity:1;stroke:#00f5d7;stroke-width:151.056;stroke-linecap:round;stroke-linejoin:round;stroke-dasharray:none;stroke-opacity:1"
       id="path543"
       inkscape:flatsided="true"
       sodipodi:sides="6"
       sodipodi:cx="2043.8701"
       sodipodi:cy="430.41861"
       sodipodi:r1="334.09531"
       sodipodi:r2="289.33502"
       sodipodi:arg1="1.5130516"
       sodipodi:arg2="2.0366504"
       inkscape:rounded="0"
       inkscape:randomized="0"
       d="M 2063.1516,763.95706 1764.6581,613.88612 1745.3766,280.34767 2024.5886,96.880161 2323.0821,246.9511 2342.3636,580.48955 Z"
       inkscape:transform-center-x="3.7276028e-06"
       inkscape:transform-center-y="-1.4565446e-05"
       transform="matrix(0.66638356,0.06054972,-0.06009649,0.6714093,740.58466,327.43328)" /><g
       id="g285"
       transform="matrix(0.64704333,0,0,1.4588689,-2383.2642,-287.72667)"
       style="stroke-width:0.272325"><rect
         x="0"
         y="0"
         width="3440"
         height="1440"
         fill="#1b1641"
         id="rect241"
         style="stroke-width:0.074161" /><path
         d="m 0,288 81.8,26 c 81.9,26 245.5,78 409.4,81 163.8,3 327.8,-43 491.6,-33.2 163.9,9.9 327.5,75.5 491.4,105.4 163.8,29.8 327.8,23.8 491.6,-19.4 163.9,-43.1 327.5,-123.5 491.4,-158 163.8,-34.5 327.8,-23.1 491.6,3.7 163.9,26.8 327.5,69.2 409.4,90.3 L 3440,405 v 1036 h -81.8 c -81.9,0 -245.5,0 -409.4,0 -163.8,0 -327.8,0 -491.6,0 -163.9,0 -327.5,0 -491.4,0 -163.8,0 -327.8,0 -491.6,0 -163.9,0 -327.5,0 -491.4,0 -163.8,0 -327.8,0 -491.6,0 -163.9,0 -327.5,0 -409.4,0 H 0 Z"
         fill="#832ad0"
         id="path243"
         style="stroke-width:0.074161" /><path
         d="m 0,500 81.8,-14.2 c 81.9,-14.1 245.5,-42.5 409.4,-45.5 163.8,-3 327.8,19.4 491.6,18.2 163.9,-1.2 327.5,-25.8 491.4,-16 163.8,9.8 327.8,54.2 491.6,100.7 163.9,46.5 327.5,95.1 491.4,72.6 C 2621,593.3 2785,499.7 2948.8,486.3 3112.7,473 3276.3,540 3358.2,573.5 L 3440,607 v 834 h -81.8 c -81.9,0 -245.5,0 -409.4,0 -163.8,0 -327.8,0 -491.6,0 -163.9,0 -327.5,0 -491.4,0 -163.8,0 -327.8,0 -491.6,0 -163.9,0 -327.5,0 -491.4,0 -163.8,0 -327.8,0 -491.6,0 -163.9,0 -327.5,0 -409.4,0 H 0 Z"
         fill="#6453e6"
         id="path245"
         style="stroke-width:0.074161" /><path
         d="m 0,690 81.8,7.8 c 81.9,7.9 245.5,23.5 409.4,27.9 C 655,730 819,723 982.8,712.3 c 163.9,-10.6 327.5,-25 491.4,-25.3 163.8,-0.3 327.8,13.3 491.6,1 163.9,-12.3 327.5,-50.7 491.4,-51.5 163.8,-0.8 327.8,35.8 491.6,31.8 163.9,-4 327.5,-48.6 409.4,-71 L 3440,575 v 866 h -81.8 c -81.9,0 -245.5,0 -409.4,0 -163.8,0 -327.8,0 -491.6,0 -163.9,0 -327.5,0 -491.4,0 -163.8,0 -327.8,0 -491.6,0 -163.9,0 -327.5,0 -491.4,0 -163.8,0 -327.8,0 -491.6,0 -163.9,0 -327.5,0 -409.4,0 H 0 Z"
         fill="#3b70f6"
         id="path247"
         style="stroke-width:0.074161" /><path
         d="m 0,724 81.8,-36.7 c 81.9,-36.6 245.5,-110 409.4,-139 163.8,-29 327.8,-13.6 491.6,-0.8 163.9,12.8 327.5,23.2 491.4,63.2 163.8,40 327.8,109.6 491.6,143.8 163.9,34.2 327.5,32.8 491.4,15.2 C 2621,752 2785,718 2948.8,710.3 c 163.9,-7.6 327.5,11 409.4,20.4 l 81.8,9.3 v 701 h -81.8 c -81.9,0 -245.5,0 -409.4,0 -163.8,0 -327.8,0 -491.6,0 -163.9,0 -327.5,0 -491.4,0 -163.8,0 -327.8,0 -491.6,0 -163.9,0 -327.5,0 -491.4,0 -163.8,0 -327.8,0 -491.6,0 -163.9,0 -327.5,0 -409.4,0 H 0 Z"
         fill="#0087fe"
         id="path249"
         style="stroke-width:0.074161" /><path
         d="m 0,799 81.8,9.3 c 81.9,9.4 245.5,28 409.4,35.2 163.8,7.2 327.8,2.8 491.6,-25.8 163.9,-28.7 327.5,-81.7 491.4,-82.9 163.8,-1.1 327.8,49.5 491.6,85 163.9,35.5 327.5,55.9 491.4,55.9 163.8,0 327.8,-20.4 491.6,-49 163.9,-28.7 327.5,-65.7 409.4,-84.2 L 3440,724 v 717 h -81.8 c -81.9,0 -245.5,0 -409.4,0 -163.8,0 -327.8,0 -491.6,0 -163.9,0 -327.5,0 -491.4,0 -163.8,0 -327.8,0 -491.6,0 -163.9,0 -327.5,0 -491.4,0 -163.8,0 -327.8,0 -491.6,0 -163.9,0 -327.5,0 -409.4,0 H 0 Z"
         fill="#009cff"
         id="path251"
         style="stroke-width:0.074161" /><path
         d="m 0,727 81.8,0.3 c 81.9,0.4 245.5,1 409.4,-3.6 C 655,719 819,709 982.8,720.8 c 163.9,11.9 327.5,45.5 491.4,60.4 163.8,14.8 327.8,10.8 491.6,26.3 163.9,15.5 327.5,50.5 491.4,48.5 163.8,-2 327.8,-41 491.6,-39.3 163.9,1.6 327.5,44 409.4,65.1 L 3440,903 v 538 h -81.8 c -81.9,0 -245.5,0 -409.4,0 -163.8,0 -327.8,0 -491.6,0 -163.9,0 -327.5,0 -491.4,0 -163.8,0 -327.8,0 -491.6,0 -163.9,0 -327.5,0 -491.4,0 -163.8,0 -327.8,0 -491.6,0 -163.9,0 -327.5,0 -409.4,0 H 0 Z"
         fill="#00aeff"
         id="path253"
         style="stroke-width:0.074161" /><path
         d="m 0,955 81.8,-24.2 c 81.9,-24.1 245.5,-72.5 409.4,-76 163.8,-3.5 327.8,37.9 491.6,35.2 163.9,-2.7 327.5,-49.3 491.4,-46.2 163.8,3.2 327.8,56.2 491.6,66 163.9,9.9 327.5,-23.5 491.4,-29.1 163.8,-5.7 327.8,16.3 491.6,10 163.9,-6.4 327.5,-41 409.4,-58.4 L 3440,815 v 626 h -81.8 c -81.9,0 -245.5,0 -409.4,0 -163.8,0 -327.8,0 -491.6,0 -163.9,0 -327.5,0 -491.4,0 -163.8,0 -327.8,0 -491.6,0 -163.9,0 -327.5,0 -491.4,0 -163.8,0 -327.8,0 -491.6,0 -163.9,0 -327.5,0 -409.4,0 H 0 Z"
         fill="#00bfff"
         id="path255"
         style="stroke-width:0.074161" /><path
         d="m 0,1011 81.8,-5.3 c 81.9,-5.4 245.5,-16 409.4,-6.5 163.8,9.5 327.8,39.1 491.6,56.6 163.9,17.5 327.5,22.9 491.4,12 C 1638,1057 1802,1030 1965.8,1008.5 2129.7,987 2293.3,971 2457.2,976 c 163.8,5 327.8,31 491.6,26 163.9,-5 327.5,-41 409.4,-59 l 81.8,-18 v 516 h -81.8 c -81.9,0 -245.5,0 -409.4,0 -163.8,0 -327.8,0 -491.6,0 -163.9,0 -327.5,0 -491.4,0 -163.8,0 -327.8,0 -491.6,0 -163.9,0 -327.5,0 -491.4,0 -163.8,0 -327.8,0 -491.6,0 -163.9,0 -327.5,0 -409.4,0 H 0 Z"
         fill="#00cfff"
         id="path257"
         style="stroke-width:0.074161" /><path
         d="m 0,994 81.8,28.7 c 81.9,28.6 245.5,86 409.4,112.3 163.8,26.3 327.8,21.7 491.6,-8 163.9,-29.7 327.5,-84.3 491.4,-107 163.8,-22.7 327.8,-13.3 491.6,2.7 163.9,16 327.5,38.6 491.4,36.5 163.8,-2.2 327.8,-29.2 491.6,-15.9 163.9,13.4 327.5,67 409.4,93.9 l 81.8,26.8 v 277 h -81.8 c -81.9,0 -245.5,0 -409.4,0 -163.8,0 -327.8,0 -491.6,0 -163.9,0 -327.5,0 -491.4,0 -163.8,0 -327.8,0 -491.6,0 -163.9,0 -327.5,0 -491.4,0 -163.8,0 -327.8,0 -491.6,0 -163.9,0 -327.5,0 -409.4,0 H 0 Z"
         fill="#00ddfa"
         id="path259"
         style="stroke-width:0.074161" /><path
         d="m 0,1129 81.8,5.8 c 81.9,5.9 245.5,17.5 409.4,30.2 163.8,12.7 327.8,26.3 491.6,23.8 163.9,-2.5 327.5,-21.1 491.4,-36.1 163.8,-15 327.8,-26.4 491.6,-32.7 163.9,-6.3 327.5,-7.7 491.4,-6 163.8,1.7 327.8,6.3 491.6,18.3 163.9,12 327.5,31.4 409.4,41 l 81.8,9.7 v 258 h -81.8 c -81.9,0 -245.5,0 -409.4,0 -163.8,0 -327.8,0 -491.6,0 -163.9,0 -327.5,0 -491.4,0 -163.8,0 -327.8,0 -491.6,0 -163.9,0 -327.5,0 -491.4,0 -163.8,0 -327.8,0 -491.6,0 -163.9,0 -327.5,0 -409.4,0 H 0 Z"
         fill="#00eaeb"
         id="path261"
         style="stroke-width:0.074161" /><path
         d="m 0,1306 81.8,-14.8 c 81.9,-14.9 245.5,-44.5 409.4,-56 163.8,-11.5 327.8,-4.9 491.6,-6.5 163.9,-1.7 327.5,-11.7 491.4,-10.9 163.8,0.9 327.8,12.5 491.6,28 163.9,15.5 327.5,34.9 491.4,42.2 163.8,7.3 327.8,2.7 491.6,-10 163.9,-12.7 327.5,-33.3 409.4,-43.7 L 3440,1224 v 217 h -81.8 c -81.9,0 -245.5,0 -409.4,0 -163.8,0 -327.8,0 -491.6,0 -163.9,0 -327.5,0 -491.4,0 -163.8,0 -327.8,0 -491.6,0 -163.9,0 -327.5,0 -491.4,0 -163.8,0 -327.8,0 -491.6,0 -163.9,0 -327.5,0 -409.4,0 H 0 Z"
         fill="#00f5d7"
         id="path263"
         style="stroke-width:0.074161" /><path
         d="m 0,1342 81.8,-1 c 81.9,-1 245.5,-3 409.4,-12.8 163.8,-9.9 327.8,-27.5 491.6,-35 163.9,-7.5 327.5,-4.9 491.4,-2.2 163.8,2.7 327.8,5.3 491.6,19.8 163.9,14.5 327.5,40.9 491.4,45.7 163.8,4.8 327.8,-11.8 491.6,-25.3 163.9,-13.5 327.5,-23.9 409.4,-29 l 81.8,-5.2 v 144 h -81.8 c -81.9,0 -245.5,0 -409.4,0 -163.8,0 -327.8,0 -491.6,0 -163.9,0 -327.5,0 -491.4,0 -163.8,0 -327.8,0 -491.6,0 -163.9,0 -327.5,0 -491.4,0 -163.8,0 -327.8,0 -491.6,0 -163.9,0 -327.5,0 -409.4,0 H 0 Z"
         fill="#47ffbf"
         id="path265"
         style="stroke-width:0.074161" /></g></g></svg>
