<?xml version="1.0" encoding="UTF-8" standalone="no"?>
<svg
   id="visual"
   viewBox="0 0 3440 1399"
   width="3440"
   height="1399"
   version="1.1"
   sodipodi:docname="vibe.svg"
   inkscape:version="1.2.1 (9c6d41e410, 2022-07-14)"
   xmlns:inkscape="http://www.inkscape.org/namespaces/inkscape"
   xmlns:sodipodi="http://sodipodi.sourceforge.net/DTD/sodipodi-0.dtd"
   xmlns="http://www.w3.org/2000/svg"
   xmlns:svg="http://www.w3.org/2000/svg">
  <defs
     id="defs31" />
  <sodipodi:namedview
     id="namedview29"
     pagecolor="#ffffff"
     bordercolor="#000000"
     borderopacity="0.25"
     inkscape:showpageshadow="2"
     inkscape:pageopacity="0.0"
     inkscape:pagecheckerboard="0"
     inkscape:deskcolor="#d1d1d1"
     showgrid="false"
     inkscape:zoom="0.39333333"
     inkscape:cx="451.27119"
     inkscape:cy="303.81356"
     inkscape:window-width="3440"
     inkscape:window-height="1371"
     inkscape:window-x="0"
     inkscape:window-y="0"
     inkscape:window-maximized="1"
     inkscape:current-layer="visual" />
  <rect
     x="0"
     y="0"
     width="3440"
     height="1400"
     fill="#111111"
     id="rect2"
     style="stroke-width:1" />
  <path
     d="m 3199.9034,0 12.7361,33.366668 c 12.3378,33.600001 37.8097,100.333332 30.2477,166.833342 -7.164,66.5 -46.9637,132.76667 -58.1076,199.26667 -11.5419,66.5 5.9699,133.23334 -5.97,200.2 -11.94,66.96667 -53.3317,133.70001 -43.7798,200.66668 9.1539,66.96666 68.8537,133.7 74.0277,200.20004 5.5719,66.5 -43.7799,132.7666 -44.9739,199.2666 -1.1939,66.5 44.9739,133.2334 68.4557,166.8334 L 3255.6232,1400 H 0 v -33.3666 C 0,1333.0334 0,1266.3 0,1199.8 0,1133.3 0,1067.0334 0,1000.5334 0,934.03336 0,867.30002 0,800.33336 0,733.36669 0,666.63335 0,599.66668 c 0,-66.96666 0,-133.7 0,-200.2 0,-66.5 0,-132.76667 0,-199.26667 C 0,133.7 0,66.966669 0,33.366668 V 0 Z"
     fill="#4e648a"
     id="path4"
     style="stroke-width:1" />
  <path
     d="m 2913.345,0 -15.9199,33.366668 C 2881.5052,66.966669 2849.6653,133.7 2856.4313,200.20001 c 6.3679,66.5 51.7397,132.76667 79.5995,199.26667 27.8599,66.5 38.2079,133.23334 22.288,200.2 -15.92,66.96667 -58.1078,133.70001 -64.0777,200.66668 -5.97,66.96666 24.2778,133.7 24.2778,200.20004 0,66.5 -30.2478,132.7666 -42.1877,199.2666 -11.94,66.5 -5.572,133.2334 -1.99,166.8334 l 3.184,33.3666 H 0 v -33.3666 C 0,1333.0334 0,1266.3 0,1199.8 0,1133.3 0,1067.0334 0,1000.5334 0,934.03336 0,867.30002 0,800.33336 0,733.36669 0,666.63335 0,599.66668 c 0,-66.96666 0,-133.7 0,-200.2 0,-66.5 0,-132.76667 0,-199.26667 C 0,133.7 0,66.966669 0,33.366668 V 0 Z"
     fill="#5a6596"
     id="path6"
     style="stroke-width:1" />
  <path
     d="m 2706.386,0 -5.174,33.366668 c -5.5719,33.600001 -15.9199,100.333332 -42.5858,166.833342 -26.6658,66.5 -68.8536,132.76667 -62.8836,199.26667 5.97,66.5 60.0977,133.23334 60.0977,200.2 0,66.96667 -54.1277,133.70001 -77.6097,200.66668 -23.0837,66.96666 -15.1238,133.7 14.7261,200.20004 29.8497,66.5 81.5895,132.7666 100.2954,199.2666 18.3079,66.5 3.98,133.2334 -3.5819,166.8334 L 2682.5062,1400 H 0 v -33.3666 C 0,1333.0334 0,1266.3 0,1199.8 0,1133.3 0,1067.0334 0,1000.5334 0,934.03336 0,867.30002 0,800.33336 0,733.36669 0,666.63335 0,599.66668 c 0,-66.96666 0,-133.7 0,-200.2 0,-66.5 0,-132.76667 0,-199.26667 C 0,133.7 0,66.966669 0,33.366668 V 0 Z"
     fill="#6c63a0"
     id="path8"
     style="stroke-width:1" />
  <path
     d="m 2268.5883,0 33.0338,33.366668 c 33.4319,33.600001 99.4996,100.333332 110.2455,166.833342 10.7459,66.5 -34.6259,132.76667 -40.5958,199.26667 -5.97,66.5 27.4618,133.23334 34.6258,200.2 7.1639,66.96667 -11.144,133.70001 -15.92,200.66668 -4.7759,66.96666 4.776,133.7 8.756,200.20004 3.98,66.5 2.3881,132.7666 1.194,199.2666 -1.194,66.5 -2.786,133.2334 -3.184,166.8334 L 2395.9477,1400 H 0 v -33.3666 C 0,1333.0334 0,1266.3 0,1199.8 0,1133.3 0,1067.0334 0,1000.5334 0,934.03336 0,867.30002 0,800.33336 0,733.36669 0,666.63335 0,599.66668 c 0,-66.96666 0,-133.7 0,-200.2 0,-66.5 0,-132.76667 0,-199.26667 C 0,133.7 0,66.966669 0,33.366668 V 0 Z"
     fill="#8260a4"
     id="path10"
     style="stroke-width:1" />
  <path
     d="m 2157.1488,0 -9.9499,33.366668 c -9.95,33.600001 -29.8498,100.333332 -24.6759,166.833342 5.572,66.5 35.8199,132.76667 25.8699,199.26667 -9.9499,66.5 -60.0977,133.23334 -65.6696,200.2 -5.174,66.96667 34.6258,133.70001 58.5056,200.66668 23.8799,66.96666 31.8399,133.7 36.6159,200.20004 4.3779,66.5 5.9699,132.7666 0.3979,199.2666 -5.1739,66.5 -17.1138,133.2334 -23.0838,166.8334 l -5.97,33.3666 H 0 v -33.3666 C 0,1333.0334 0,1266.3 0,1199.8 0,1133.3 0,1067.0334 0,1000.5334 0,934.03336 0,867.30002 0,800.33336 0,733.36669 0,666.63335 0,599.66668 c 0,-66.96666 0,-133.7 0,-200.2 0,-66.5 0,-132.76667 0,-199.26667 C 0,133.7 0,66.966669 0,33.366668 V 0 Z"
     fill="#9b5aa4"
     id="path12"
     style="stroke-width:1" />
  <path
     d="m 1874.5704,0 -11.1441,33.366668 C 1851.8844,66.966669 1829.5965,133.7 1822.8306,200.20001 c -6.766,66.5 2.786,132.76667 22.6858,199.26667 19.8999,66.5 50.1478,133.23334 61.6898,200.2 11.1439,66.96667 3.184,133.70001 -11.542,200.66668 -14.3279,66.96666 -35.8198,133.7 -55.7197,200.20004 -19.8999,66.5 -38.2078,132.7666 -22.2879,199.2666 15.92,66.5 66.0677,133.2334 91.5396,166.8334 L 1934.27,1400 H 0 v -33.3666 C 0,1333.0334 0,1266.3 0,1199.8 0,1133.3 0,1067.0334 0,1000.5334 0,934.03336 0,867.30002 0,800.33336 0,733.36669 0,666.63335 0,599.66668 c 0,-66.96666 0,-133.7 0,-200.2 0,-66.5 0,-132.76667 0,-199.26667 C 0,133.7 0,66.966669 0,33.366668 V 0 Z"
     fill="#b4529f"
     id="path14"
     style="stroke-width:1" />
  <path
     d="m 1532.292,0 -4.7759,33.366668 c -4.378,33.600001 -13.9299,100.333332 -19.8999,166.833342 -5.97,66.5 -8.3579,132.76667 10.746,199.26667 19.1038,66.5 60.4956,133.23334 67.6596,200.2 7.1639,66.96667 -19.1039,133.70001 -39.7998,200.66668 -20.6958,66.96666 -35.0238,133.7 -41.7898,200.20004 -6.7659,66.5 -5.1739,132.7666 13.1339,199.2666 18.706,66.5 54.5258,133.2334 72.4357,166.8334 L 1607.9117,1400 H 0 v -33.3666 C 0,1333.0334 0,1266.3 0,1199.8 0,1133.3 0,1067.0334 0,1000.5334 0,934.03336 0,867.30002 0,800.33336 0,733.36669 0,666.63335 0,599.66668 c 0,-66.96666 0,-133.7 0,-200.2 0,-66.5 0,-132.76667 0,-199.26667 C 0,133.7 0,66.966669 0,33.366668 V 0 Z"
     fill="#cb4894"
     id="path16"
     style="stroke-width:1" />
  <path
     d="m 1416.8727,0 -10.746,33.366668 C 1395.7788,66.966669 1374.2869,133.7 1361.9489,200.20001 c -12.7359,66.5 -16.7158,132.76667 -26.6658,199.26667 -9.9499,66.5 -25.8699,133.23334 -26.6658,200.2 -0.3981,66.96667 13.9298,133.70001 28.6558,200.66668 14.7259,66.96666 29.0539,133.7 23.8799,200.20004 -5.174,66.5 -30.6458,132.7666 -54.9238,199.2666 -24.6759,66.5 -48.5557,133.2334 -60.4957,166.8334 L 1233.7936,1400 H 0 v -33.3666 C 0,1333.0334 0,1266.3 0,1199.8 0,1133.3 0,1067.0334 0,1000.5334 0,934.03336 0,867.30002 0,800.33336 0,733.36669 0,666.63335 0,599.66668 c 0,-66.96666 0,-133.7 0,-200.2 0,-66.5 0,-132.76667 0,-199.26667 C 0,133.7 0,66.966669 0,33.366668 V 0 Z"
     fill="#e03d84"
     id="path18"
     style="stroke-width:1" />
  <path
     d="m 1054.6946,0 -13.134,33.366668 C 1028.0287,66.966669 1001.7608,133.7 990.21888,200.20001 c -11.14394,66.5 -7.16396,132.76667 -3.18397,199.26667 3.97998,66.5 7.95995,133.23334 33.03379,200.2 25.4719,66.96667 71.6396,133.70001 89.5495,200.66668 17.9099,66.96666 7.5621,133.7 -14.3279,200.20004 -21.8899,66.5 -55.3217,132.7666 -61.2916,199.2666 -5.97,66.5 15.5219,133.2334 25.8699,166.8334 L 1070.6145,1400 H 0 v -33.3666 C 0,1333.0334 0,1266.3 0,1199.8 0,1133.3 0,1067.0334 0,1000.5334 0,934.03336 0,867.30002 0,800.33336 0,733.36669 0,666.63335 0,599.66668 c 0,-66.96666 0,-133.7 0,-200.2 0,-66.5 0,-132.76667 0,-199.26667 C 0,133.7 0,66.966669 0,33.366668 V 0 Z"
     fill="#f0356f"
     id="path20"
     style="stroke-width:1" />
  <path
     d="m 748.23613,0 14.72594,33.366668 C 777.28999,66.966669 806.74184,133.7 807.93583,200.20001 c 1.19399,66.5 -25.07387,132.76667 -44.97376,199.26667 -19.89991,66.5 -33.43184,133.23334 -27.85987,200.2 5.17398,66.96667 29.05385,133.70001 55.71972,200.66668 26.26786,66.96666 55.71971,133.7 48.15775,200.20004 -7.16396,66.5 -50.94373,132.7666 -66.86365,199.2666 -15.91992,66.5 -3.97999,133.2334 1.98999,166.8334 L 780.07597,1400 H 0 v -33.3666 C 0,1333.0334 0,1266.3 0,1199.8 0,1133.3 0,1067.0334 0,1000.5334 0,934.03336 0,867.30002 0,800.33336 0,733.36669 0,666.63335 0,599.66668 c 0,-66.96666 0,-133.7 0,-200.2 0,-66.5 0,-132.76667 0,-199.26667 C 0,133.7 0,66.966669 0,33.366668 V 0 Z"
     fill="#fb3557"
     id="path22"
     style="stroke-width:1" />
  <path
     d="m 485.55749,0 7.16397,33.366668 c 7.56196,33.600001 21.88988,100.333332 43.77977,166.833342 21.88988,66.5 51.34174,132.76667 41.78979,199.26667 -9.15396,66.5 -56.91371,133.23334 -62.08768,200.2 -5.57197,66.96667 31.83983,133.70001 48.15775,200.66668 16.71591,66.96666 12.73593,133.7 1.98999,200.20004 -10.34795,66.5 -27.85986,132.7666 -22.28789,199.2666 5.17397,66.5 33.03383,133.2334 46.96376,166.8334 L 604.95687,1400 H 0 v -33.3666 C 0,1333.0334 0,1266.3 0,1199.8 0,1133.3 0,1067.0334 0,1000.5334 0,934.03336 0,867.30002 0,800.33336 0,733.36669 0,666.63335 0,599.66668 c 0,-66.96666 0,-133.7 0,-200.2 0,-66.5 0,-132.76667 0,-199.26667 C 0,133.7 0,66.966669 0,33.366668 V 0 Z"
     fill="#ff3e3b"
     id="path24"
     style="stroke-width:1" />
  <path
     d="m 258.69866,0 15.91992,33.366668 C 290.5385,66.966669 322.37834,133.7 313.62238,200.20001 c -8.35796,66.5 -57.7097,132.76667 -81.58958,199.26667 -23.87988,66.5 -22.28788,133.23334 -16.31792,200.2 5.96998,66.96667 16.31792,133.70001 22.28789,200.66668 5.96997,66.96666 7.56196,133.7 5.57197,200.20004 -1.98998,66.5 -7.56195,132.7666 -12.73593,199.2666 -5.17397,66.5 -10.74594,133.2334 -13.13394,166.8334 L 214.91889,1400 H 0 v -33.3666 C 0,1333.0334 0,1266.3 0,1199.8 0,1133.3 0,1067.0334 0,1000.5334 0,934.03336 0,867.30002 0,800.33336 0,733.36669 0,666.63335 0,599.66668 c 0,-66.96666 0,-133.7 0,-200.2 0,-66.5 0,-132.76667 0,-199.26667 C 0,133.7 0,66.966669 0,33.366668 V 0 Z"
     fill="#ff4f14"
     id="path26"
     style="stroke-width:1" />
</svg>
