<?xml version="1.0" encoding="UTF-8" standalone="no"?>
<svg
   xmlns:dc="http://purl.org/dc/elements/1.1/"
   xmlns:cc="http://creativecommons.org/ns#"
   xmlns:rdf="http://www.w3.org/1999/02/22-rdf-syntax-ns#"
   xmlns:svg="http://www.w3.org/2000/svg"
   xmlns="http://www.w3.org/2000/svg"
   xmlns:sodipodi="http://sodipodi.sourceforge.net/DTD/sodipodi-0.dtd"
   xmlns:inkscape="http://www.inkscape.org/namespaces/inkscape"
   height="512px"
   style="enable-background:new 0 0 512 512;"
   version="1.1"
   viewBox="0 0 512 512"
   width="512px"
   xml:space="preserve"
   id="svg20"
   sodipodi:docname="basecamp.svg"
   inkscape:version="1.0.2 (e86c870879, 2021-01-15)"><metadata
     id="metadata26"><rdf:RDF><cc:Work
         rdf:about=""><dc:format>image/svg+xml</dc:format><dc:type
           rdf:resource="http://purl.org/dc/dcmitype/StillImage" /><dc:title></dc:title></cc:Work></rdf:RDF></metadata><defs
     id="defs24" /><sodipodi:namedview
     pagecolor="#ffffff"
     bordercolor="#666666"
     borderopacity="1"
     objecttolerance="10"
     gridtolerance="10"
     guidetolerance="10"
     inkscape:pageopacity="0"
     inkscape:pageshadow="2"
     inkscape:window-width="640"
     inkscape:window-height="480"
     id="namedview22"
     showgrid="false"
     inkscape:zoom="2.0182173"
     inkscape:cx="256"
     inkscape:cy="156.90264"
     inkscape:current-layer="svg20" /><g
     id="_x33_7-basecamp"><g
       id="g16"><path
         d="m 256,51.705 c 123.82,0 220.83,159.91 230,295 -38.84,68.43 -132.57,113.59 -230,113.59 -97.43,0 -191.16,-45.16 -230,-113.59 9.17,-135.09 106.17,-295 230,-295 z m 198,268.59 c 0,0 -15.59,-49.56 -54.66,-100.69 -20.67,-27.08 -45.699,-55.35 -65.34,-67.31 -6.17,-3.76 -11.8,-5.91 -16.6,-5.91 -20.09,0 -76.24,100.92 -102,100.92 -25.76,0 -39.16,-45.95 -70.84,-45.75 -10.79,0.06 -21.52,8.16 -31.56,20.27 -30.09,36.331 -53.88,108.76 -53.88,108.76 0,0 25.88,94.71 204.88,89.71 175.57,-4.9 190,-100 190,-100 z"
         style="fill:#b9ddf6"
         id="path2" /><path
         d="m 399.34,219.605 c 39.07,51.13 54.66,100.69 54.66,100.69 0,0 -14.43,95.1 -190,100 -179,5 -204.88,-89.71 -204.88,-89.71 0,0 23.79,-72.43 53.88,-108.76 l 2.12,0.14 c 20.16,0.69 45.17,36.85 52.27,52.67 3.95,8.8 9.57,20.3 17.75,29.62 8.17,9.31 18.92,16.42 33.13,16.42 35.2,0 109.621,-130.03 115.52,-168.05 l 0.21,-0.33 c 19.641,11.96 44.67,40.23 65.34,67.31 z m -55.279,134.209 c 0,-7.38 -5.9,-13.369 -13.17,-13.369 -7.271,0 -13.17,5.989 -13.17,13.369 0,7.391 5.899,13.381 13.17,13.381 7.269,0 13.17,-6 13.17,-13.381 z m -149.641,0 c 0,-7.46 -5.96,-13.52 -13.32,-13.52 -7.35,0 -13.32,6.05 -13.32,13.52 0,7.48 5.97,13.53 13.32,13.53 7.36,0.001 13.32,-6.049 13.32,-13.53 z"
         style="fill:#6fc167"
         id="path4" /><path
         d="m 334,152.295 -0.21,0.33 c -5.899,38.02 -80.32,168.05 -115.52,168.05 -14.21,0 -24.96,-7.11 -33.13,-16.42 -8.18,-9.32 -13.8,-20.82 -17.75,-29.62 -7.1,-15.82 -32.11,-51.98 -52.27,-52.67 l -2.12,-0.14 c 10.04,-12.11 20.77,-20.21 31.56,-20.27 31.68,-0.2 45.08,45.75 70.84,45.75 25.76,0 81.911,-100.92 102,-100.92 4.8,0 10.43,2.15 16.6,5.91 z"
         style="fill:#22af4b"
         id="path6" /><g
         id="g14"><path
           d="m 181.1,330.295 c -12.858,0 -23.32,10.551 -23.32,23.52 0,12.975 10.461,23.53 23.32,23.53 12.859,0 23.32,-10.556 23.32,-23.53 0,-12.969 -10.462,-23.52 -23.32,-23.52 z"
           id="path8" /><path
           d="m 330.891,330.445 c -12.776,0 -23.17,10.483 -23.17,23.369 0,12.893 10.394,23.381 23.17,23.381 12.775,0 23.17,-10.488 23.17,-23.381 0,-12.885 -10.395,-23.369 -23.17,-23.369 z"
           id="path10" /><path
           d="m 278.941,371.669 c -27.859,16.334 -47.784,1.516 -48.745,0.777 -4.306,-3.401 -10.555,-2.697 -13.996,1.589 -3.457,4.308 -2.768,10.602 1.54,14.059 0.836,0.672 14.436,11.301 35.325,11.301 10.412,0 22.637,-2.642 35.993,-10.474 4.764,-2.793 6.361,-8.92 3.568,-13.685 -2.794,-4.764 -8.921,-6.361 -13.685,-3.567 z"
           id="path12" /></g></g></g><g
     id="Layer_1" /></svg>
