<?xml version="1.0" encoding="UTF-8" standalone="no"?>
<svg
   xmlns:dc="http://purl.org/dc/elements/1.1/"
   xmlns:cc="http://creativecommons.org/ns#"
   xmlns:rdf="http://www.w3.org/1999/02/22-rdf-syntax-ns#"
   xmlns:svg="http://www.w3.org/2000/svg"
   xmlns="http://www.w3.org/2000/svg"
   xmlns:xlink="http://www.w3.org/1999/xlink"
   xmlns:sodipodi="http://sodipodi.sourceforge.net/DTD/sodipodi-0.dtd"
   xmlns:inkscape="http://www.inkscape.org/namespaces/inkscape"
   inkscape:version="1.0 (4035a4fb49, 2020-05-01)"
   sodipodi:docname="com.gitlab.miridyan.Mt.svg"
   width="128"
   height="128"
   id="svg11300"
   version="1.0"
   style="display:inline;enable-background:new"
   viewBox="0 0 128 128">
  <sodipodi:namedview
     inkscape:current-layer="layer1"
     inkscape:window-maximized="1"
     inkscape:window-y="0"
     inkscape:window-x="0"
     inkscape:cy="0.5105907"
     inkscape:cx="41.601313"
     inkscape:zoom="10.716208"
     showgrid="true"
     id="namedview33"
     inkscape:window-height="1016"
     inkscape:window-width="1920"
     inkscape:pageshadow="2"
     inkscape:pageopacity="0"
     guidetolerance="10"
     gridtolerance="10"
     objecttolerance="10"
     borderopacity="1"
     bordercolor="#666666"
     pagecolor="#ffffff">
    <inkscape:grid
       id="grid882"
       type="xygrid" />
  </sodipodi:namedview>
  <title
     id="title4162">Adwaita Icon Template</title>
  <defs
     id="defs3">
    <linearGradient
       id="linearGradient1948">
      <stop
         style="stop-color:#2d2839;stop-opacity:1;"
         offset="0"
         id="stop1944" />
      <stop
         style="stop-color:#282433;stop-opacity:1"
         offset="1"
         id="stop1946" />
    </linearGradient>
    <linearGradient
       id="linearGradient1020">
      <stop
         style="stop-color:#ffffff;stop-opacity:1;"
         offset="0"
         id="stop1016" />
      <stop
         style="stop-color:#ffffff;stop-opacity:0.09411765"
         offset="1"
         id="stop1018" />
    </linearGradient>
    <linearGradient
       id="linearGradient1001">
      <stop
         style="stop-color:#77767b;stop-opacity:1"
         offset="0"
         id="stop989" />
      <stop
         id="stop991"
         offset="0.05"
         style="stop-color:#c0bfbc;stop-opacity:1" />
      <stop
         style="stop-color:#9a9996;stop-opacity:1"
         offset="0.09999998"
         id="stop993" />
      <stop
         id="stop995"
         offset="0.89999938"
         style="stop-color:#9a9996;stop-opacity:1" />
      <stop
         style="stop-color:#c0bfbc;stop-opacity:1"
         offset="0.94999999"
         id="stop997" />
      <stop
         style="stop-color:#77767b;stop-opacity:1"
         offset="1"
         id="stop999" />
    </linearGradient>
    <linearGradient
       gradientTransform="matrix(0.25,0,0,0.25,0,225)"
       xlink:href="#linearGradient1001"
       id="linearGradient965"
       x1="48"
       y1="44"
       x2="464"
       y2="44"
       gradientUnits="userSpaceOnUse" />
    <radialGradient
       xlink:href="#linearGradient1020"
       id="radialGradient1030"
       cx="63.999996"
       cy="194.19048"
       fx="63.999996"
       fy="194.19048"
       r="44"
       gradientTransform="matrix(-4.7272726,-4.4002765e-7,0,-1.3429054,238.54541,-7.9343775)"
       gradientUnits="userSpaceOnUse" />
    <linearGradient
       xlink:href="#linearGradient1948"
       id="linearGradient1950"
       x1="70.346565"
       y1="244.19327"
       x2="70.346565"
       y2="269.13693"
       gradientUnits="userSpaceOnUse" />
  </defs>
  <metadata
     id="metadata4">
    <rdf:RDF>
      <cc:Work
         rdf:about="">
        <dc:format>image/svg+xml</dc:format>
        <dc:type
           rdf:resource="http://purl.org/dc/dcmitype/StillImage" />
      </cc:Work>
    </rdf:RDF>
  </metadata>
  <g
     id="layer1"
     style="display:inline"
     transform="translate(0,-172)">
    <g
       transform="rotate(-30,420.69873,288.4192)"
       id="g1710"
       style="display:inline;enable-background:new" />
    <rect
       style="display:inline;fill:#88878a;fill-opacity:1;stroke:none;stroke-width:0.25;stroke-linecap:butt;stroke-linejoin:miter;stroke-miterlimit:4;stroke-dasharray:none;stroke-dashoffset:0;stroke-opacity:1;marker:none;marker-start:none;marker-mid:none;marker-end:none;paint-order:normal;enable-background:new"
       id="rect953"
       width="104"
       height="94"
       x="12"
       y="194"
       rx="8"
       ry="8" />
    <rect
       ry="8"
       rx="8"
       y="184"
       x="12"
       height="96"
       width="104"
       id="rect950"
       style="display:inline;fill:#deddda;fill-opacity:1;stroke:none;stroke-width:0.25;stroke-linecap:butt;stroke-linejoin:miter;stroke-miterlimit:4;stroke-dasharray:none;stroke-dashoffset:0;stroke-opacity:1;marker:none;marker-start:none;marker-mid:none;marker-end:none;paint-order:normal;enable-background:new" />
    <rect
       style="display:inline;vector-effect:none;fill:#88878a;fill-opacity:1;stroke:none;stroke-width:0.0108409px;stroke-linecap:butt;stroke-linejoin:miter;stroke-miterlimit:4;stroke-dasharray:none;stroke-dashoffset:0;stroke-opacity:1;marker:none;marker-start:none;marker-mid:none;marker-end:none;paint-order:normal;enable-background:new"
       id="rect1004-3"
       width="96"
       height="32"
       x="-112"
       y="188"
       rx="4"
       ry="4.5714288"
       transform="scale(-1,1)" />
    <rect
       transform="scale(1,-1)"
       ry="3.5555556"
       rx="4"
       y="-276.00003"
       x="16"
       height="64"
       width="96"
       id="rect1004"
       style="display:inline;vector-effect:none;fill:#241f31;fill-opacity:1;stroke:none;stroke-width:0.00956074px;stroke-linecap:butt;stroke-linejoin:miter;stroke-miterlimit:4;stroke-dasharray:none;stroke-dashoffset:0;stroke-opacity:1;marker:none;marker-start:none;marker-mid:none;marker-end:none;paint-order:normal;enable-background:new" />
    <rect
       transform="scale(-1)"
       style="display:inline;opacity:0.05;vector-effect:none;fill:url(#radialGradient1030);fill-opacity:1;stroke:none;stroke-width:0.0101614px;stroke-linecap:butt;stroke-linejoin:miter;stroke-miterlimit:4;stroke-dasharray:none;stroke-dashoffset:0;stroke-opacity:1;marker:none;marker-start:none;marker-mid:none;marker-end:none;paint-order:normal;enable-background:new"
       id="rect968"
       width="88"
       height="64.079323"
       x="-108"
       y="-272" />
    <path
       d="m 100,244 h 4 v 4 h -4 z m -8,0 h 4 v 4 h -4 z m -8,0 h 4 v 4 h -4 z m -8,0 h 4 v 4 h -4 z m -8,0 h 4 v 4 h -4 z m -8,0 h 4 v 4 h -4 z m -8,0 h 4 v 4 h -4 z m -8,0 h 4 v 4 h -4 z m -8,0 h 4 v 4 h -4 z m -8,0 h 4 v 4 h -4 z m -8,0 h 4 v 4 h -4 z m 84,4 h 4 v 4 h -4 z m -8,0 h 4 v 4 h -4 z m -8,0 h 4 v 4 h -4 z m -8,0 h 4 v 4 h -4 z m -8,0 h 4 v 4 h -4 z m -8,0 h 4 v 4 h -4 z m -8,0 h 4 v 4 h -4 z m -8,0 h 4 v 4 h -4 z m -8,0 h 4 v 4 h -4 z m -8,0 h 4 v 4 h -4 z m -8,0 h 4 v 4 h -4 z m 76,4 h 4 v 4 h -4 z m -8,0 h 4 v 4 h -4 z m -8,0 h 4 v 4 h -4 z m -8,0 h 4 v 4 h -4 z m -8,0 h 4 v 4 h -4 z m -8,0 h 4 v 4 h -4 z m -8,0 h 4 v 4 h -4 z m -8,0 h 4 v 4 h -4 z m -8,0 h 4 v 4 h -4 z m -8,0 h 4 v 4 h -4 z m -8,0 h 4 v 4 h -4 z m 84,4 h 4 v 4 h -4 z m -8,0 h 4 v 4 h -4 z m -8,0 h 4 v 4 h -4 z m -8,0 h 4 v 4 h -4 z m -8,0 h 4 v 4 h -4 z m -8,0 h 4 v 4 h -4 z m -8,0 h 4 v 4 h -4 z m -8,0 h 4 v 4 h -4 z m -8,0 h 4 v 4 h -4 z m -8,0 h 4 v 4 h -4 z m -8,0 h 4 v 4 h -4 z m 76,4 h 4 v 4 h -4 z m -8,0 h 4 v 4 h -4 z m -8,0 h 4 v 4 h -4 z m -8,0 h 4 v 4 h -4 z m -8,0 h 4 v 4 h -4 z m -8,0 h 4 v 4 h -4 z m -8,0 h 4 v 4 h -4 z m -8,0 h 4 v 4 h -4 z m -8,0 h 4 v 4 h -4 z m -8,0 h 4 v 4 h -4 z m -8,0 h 4 v 4 h -4 z m 84,4 h 4 v 4 h -4 z m -8,0 h 4 v 4 h -4 z m -8,0 h 4 v 4 h -4 z m -8,0 h 4 v 4 h -4 z m -8,0 h 4 v 4 h -4 z m -8,0 h 4 v 4 h -4 z m -8,0 h 4 v 4 h -4 z m -8,0 h 4 v 4 h -4 z m -8,0 h 4 v 4 h -4 z m -8,0 h 4 v 4 h -4 z m -8,0 h 4 v 4 h -4 z m 76,4 h 4 v 4 h -4 z m -8,0 h 4 v 4 h -4 z m -8,0 h 4 v 4 h -4 z m -8,0 h 4 v 4 h -4 z m -8,0 h 4 v 4 h -4 z m -8,0 h 4 v 4 h -4 z m -8,0 h 4 v 4 h -4 z m -8,0 h 4 v 4 h -4 z m -8,0 h 4 v 4 h -4 z m -8,0 h 4 v 4 h -4 z m -8,0 h 4 v 4 h -4 z"
       style="vector-effect:none;fill:url(#linearGradient1950);fill-opacity:1;stroke:none;stroke-width:8;stroke-linecap:round;stroke-linejoin:round;stroke-miterlimit:4;stroke-dasharray:none;stroke-dashoffset:0;stroke-opacity:1;marker:none;marker-start:none;marker-mid:none;marker-end:none;paint-order:normal"
       id="rect1059" />
    <g
       id="g976"
       transform="translate(-2,19.72818)"
       style="fill:#ffffff">
      <path
         d="M 44.012301,210.88755 30,203.27182 V 208 l 9.710724,4.62951 v 0.1422 L 30,218 v 4.72818 l 14.012301,-8.21451 z"
         style="font-style:normal;font-variant:normal;font-weight:bold;font-stretch:normal;font-size:medium;line-height:1.25;font-family:'Source Code Pro';-inkscape-font-specification:'Source Code Pro, Bold';font-variant-ligatures:normal;font-variant-caps:normal;font-variant-numeric:normal;font-feature-settings:normal;text-align:start;letter-spacing:0px;word-spacing:0px;writing-mode:lr-tb;text-anchor:start;fill:#ffffff;fill-opacity:1;stroke:none;stroke-width:0.25"
         id="path972" />
      <path
         d="m 47.999998,226 2e-6,4 h 16.00001 l -2e-6,-4 z"
         style="font-style:normal;font-variant:normal;font-weight:bold;font-stretch:normal;font-size:medium;line-height:1.25;font-family:'Source Code Pro';-inkscape-font-specification:'Source Code Pro, Bold';font-variant-ligatures:normal;font-variant-caps:normal;font-variant-numeric:normal;font-feature-settings:normal;text-align:start;letter-spacing:0px;word-spacing:0px;writing-mode:lr-tb;text-anchor:start;fill:#ffffff;fill-opacity:1;stroke:none;stroke-width:0.25"
         id="path974" />
    </g>
    <path
       d="m 96.00425,196.001 h 1.03046 c 0.25486,0.011 0.50973,0.12898 0.68763,0.31296 l 2.27979,2.27867 2.31077,-2.27967 c 0.26585,-0.23097 0.44676,-0.30596 0.68763,-0.31296 H 104 v 0.99986 c 0,0.28596 -0.034,0.54992 -0.24987,0.74989 l -2.27978,2.28168 2.2488,2.24968 C 103.90705,202.46908 104,202.73504 104,203 v 0.99986 h -0.99947 c -0.26486,0 -0.52972,-0.093 -0.71862,-0.28096 l -2.27978,-2.28067 -2.27979,2.27967 a 1.0144595,1.0148556 0 0 1 -0.71861,0.28196 H 96.00425 V 203 c 0,-0.26496 0.093,-0.52992 0.28086,-0.71889 l 2.27978,-2.24968 -2.27878,-2.28068 a 0.90851594,0.90887068 0 0 1 -0.28186,-0.74989 z"
       style="line-height:normal;-inkscape-font-specification:'Andale Mono';text-indent:0;text-align:start;text-decoration:none;text-decoration-line:none;text-transform:none;stroke-width:0.999663;marker:none"
       color="#bebebe"
       font-weight="400"
       font-family="'Andale Mono'"
       overflow="visible"
       fill="#2e3436"
       id="path976" />
  </g>
</svg>
