<?xml version="1.0" encoding="UTF-8" standalone="no"?>
<svg
   xmlns:dc="http://purl.org/dc/elements/1.1/"
   xmlns:cc="http://creativecommons.org/ns#"
   xmlns:rdf="http://www.w3.org/1999/02/22-rdf-syntax-ns#"
   xmlns:svg="http://www.w3.org/2000/svg"
   xmlns="http://www.w3.org/2000/svg"
   xmlns:sodipodi="http://sodipodi.sourceforge.net/DTD/sodipodi-0.dtd"
   xmlns:inkscape="http://www.inkscape.org/namespaces/inkscape"
   viewBox="0 0 128 128"
   style="display:inline;enable-background:new"
   version="1.0"
   id="svg11300"
   height="128"
   width="128"
   sodipodi:docname="footprint.svg"
   inkscape:version="0.92.4 (5da689c313, 2019-01-14)">
  <sodipodi:namedview
     pagecolor="#ffffff"
     bordercolor="#666666"
     borderopacity="1"
     objecttolerance="10"
     gridtolerance="10"
     guidetolerance="10"
     inkscape:pageopacity="0"
     inkscape:pageshadow="2"
     inkscape:window-width="1600"
     inkscape:window-height="837"
     id="namedview24"
     showgrid="true"
     inkscape:zoom="3.1271068"
     inkscape:cx="50.152478"
     inkscape:cy="-0.36170697"
     inkscape:window-x="129"
     inkscape:window-y="120"
     inkscape:window-maximized="0"
     inkscape:current-layer="svg11300">
    <inkscape:grid
       type="xygrid"
       id="grid3729" />
  </sodipodi:namedview>
  <title
     id="title4162">Adwaita Icon Template</title>
  <defs
     id="defs3" />
  <metadata
     id="metadata4">
    <rdf:RDF>
      <cc:Work
         rdf:about="">
        <dc:format>image/svg+xml</dc:format>
        <dc:type
           rdf:resource="http://purl.org/dc/dcmitype/StillImage" />
        <dc:title>Adwaita Icon Template</dc:title>
      </cc:Work>
    </rdf:RDF>
  </metadata>
  <g
     transform="rotate(-30,92.546231,184.49096)"
     id="g1710"
     style="display:inline;enable-background:new" />
  <text
     id="text1204"
     y="218.00003"
     x="107.99998"
     style="font-style:normal;font-variant:normal;font-weight:normal;font-stretch:normal;font-size:26.66666603px;line-height:125%;font-family:Cantarell;-inkscape-font-specification:Cantarell;letter-spacing:0px;word-spacing:0px;display:inline;fill:#000000;fill-opacity:1;stroke:none;enable-background:new"
     xml:space="preserve"><tspan
       y="225.90536"
       x="107.99998"
       id="tspan1202" /></text>
  <g
     id="g1466">
    <g
       style="fill:#1a5fb4;fill-rule:nonzero;stroke:none;stroke-miterlimit:4"
       id="g1365"
       transform="matrix(0.94906109,0,0,0.94906109,18.917544,8.9806231)">
      <g
         style="fill:#1a5fb4"
         id="g1367">
        <path
           style="fill:#1a5fb4"
           inkscape:connector-curvature="0"
           d="M 86.068,0 C 61.466,0 56.851,35.041 70.691,35.041 84.529,35.041 110.671,0 86.068,0 Z"
           id="path1369" />
        <path
           style="fill:#1a5fb4"
           inkscape:connector-curvature="0"
           d="M 45.217,30.699 C 52.586,31.149 60.671,2.577 46.821,4.374 32.976,6.171 37.845,30.249 45.217,30.699 Z"
           id="path1371" />
        <path
           style="fill:#1a5fb4"
           inkscape:connector-curvature="0"
           d="M 11.445,48.453 C 16.686,46.146 12.12,23.581 3.208,29.735 -5.7,35.89 6.204,50.759 11.445,48.453 Z"
           id="path1373" />
        <path
           style="fill:#1a5fb4"
           inkscape:connector-curvature="0"
           d="M 26.212,36.642 C 32.451,35.37 32.793,9.778 21.667,14.369 10.539,18.961 19.978,37.916 26.212,36.642 Z"
           id="path1375" />
        <path
           style="fill:#1a5fb4"
           inkscape:connector-curvature="0"
           d="m 58.791,93.913 c 1.107,8.454 -6.202,12.629 -13.36,7.179 C 22.644,83.743 83.16,75.088 79.171,51.386 75.86,31.712 15.495,37.769 8.621,68.553 3.968,89.374 27.774,118.26 52.614,118.26 c 12.22,0 26.315,-11.034 28.952,-25.012 C 83.58,82.589 57.867,86.86 58.791,93.913 Z"
           id="newshape" />
      </g>
    </g>
    <g
       transform="matrix(0.94906109,0,0,0.94906109,17.958191,6.4223478)"
       id="g870"
       style="fill:#3584e4;fill-rule:nonzero;stroke:none;stroke-miterlimit:4">
      <g
         id="g868"
         style="fill:#3584e4">
        <path
           id="path858"
           d="M 86.068,0 C 61.466,0 56.851,35.041 70.691,35.041 84.529,35.041 110.671,0 86.068,0 Z"
           inkscape:connector-curvature="0"
           style="fill:#3584e4" />
        <path
           id="path860"
           d="M 45.217,30.699 C 52.586,31.149 60.671,2.577 46.821,4.374 32.976,6.171 37.845,30.249 45.217,30.699 Z"
           inkscape:connector-curvature="0"
           style="fill:#3584e4" />
        <path
           id="path862"
           d="M 11.445,48.453 C 16.686,46.146 12.12,23.581 3.208,29.735 -5.7,35.89 6.204,50.759 11.445,48.453 Z"
           inkscape:connector-curvature="0"
           style="fill:#3584e4" />
        <path
           id="path864"
           d="M 26.212,36.642 C 32.451,35.37 32.793,9.778 21.667,14.369 10.539,18.961 19.978,37.916 26.212,36.642 Z"
           inkscape:connector-curvature="0"
           style="fill:#3584e4" />
        <path
           id="path866"
           d="m 58.791,93.913 c 1.107,8.454 -6.202,12.629 -13.36,7.179 C 22.644,83.743 83.16,75.088 79.171,51.386 75.86,31.712 15.495,37.769 8.621,68.553 3.968,89.374 27.774,118.26 52.614,118.26 c 12.22,0 26.315,-11.034 28.952,-25.012 C 83.58,82.589 57.867,86.86 58.791,93.913 Z"
           inkscape:connector-curvature="0"
           style="fill:#3584e4" />
      </g>
    </g>
  </g>
</svg>
