<?xml version="1.0" encoding="UTF-8" standalone="no"?>
<svg
   xmlns:dc="http://purl.org/dc/elements/1.1/"
   xmlns:cc="http://creativecommons.org/ns#"
   xmlns:rdf="http://www.w3.org/1999/02/22-rdf-syntax-ns#"
   xmlns:svg="http://www.w3.org/2000/svg"
   xmlns="http://www.w3.org/2000/svg"
   xmlns:sodipodi="http://sodipodi.sourceforge.net/DTD/sodipodi-0.dtd"
   xmlns:inkscape="http://www.inkscape.org/namespaces/inkscape"
   viewBox="0 0 128 128"
   style="display:inline;enable-background:new"
   version="1.0"
   id="svg11300"
   height="128"
   width="128"
   sodipodi:docname="appimagekit-plexamp.svg"
   inkscape:version="0.92.4 (5da689c313, 2019-01-14)">
  <sodipodi:namedview
     pagecolor="#ffffff"
     bordercolor="#666666"
     borderopacity="1"
     objecttolerance="10"
     gridtolerance="10"
     guidetolerance="10"
     inkscape:pageopacity="0"
     inkscape:pageshadow="2"
     inkscape:window-width="1718"
     inkscape:window-height="989"
     id="namedview24"
     showgrid="true"
     inkscape:zoom="2.6074563"
     inkscape:cx="171.11377"
     inkscape:cy="-0.8250375"
     inkscape:window-x="591"
     inkscape:window-y="38"
     inkscape:window-maximized="0"
     inkscape:current-layer="svg11300">
    <inkscape:grid
       type="xygrid"
       id="grid3729" />
  </sodipodi:namedview>
  <title
     id="title4162">Adwaita Icon Template</title>
  <defs
     id="defs3" />
  <metadata
     id="metadata4">
    <rdf:RDF>
      <cc:Work
         rdf:about="">
        <dc:format>image/svg+xml</dc:format>
        <dc:type
           rdf:resource="http://purl.org/dc/dcmitype/StillImage" />
      </cc:Work>
    </rdf:RDF>
  </metadata>
  <g
     transform="rotate(-30,92.546231,184.49096)"
     id="g1710"
     style="display:inline;enable-background:new" />
  <text
     id="text1204"
     y="218.00003"
     x="107.99998"
     style="font-style:normal;font-variant:normal;font-weight:normal;font-stretch:normal;font-size:26.66666603px;line-height:125%;font-family:Cantarell;-inkscape-font-specification:Cantarell;letter-spacing:0px;word-spacing:0px;display:inline;fill:#000000;fill-opacity:1;stroke:none;enable-background:new"
     xml:space="preserve"><tspan
       y="225.90536"
       x="107.99998"
       id="tspan1202" /></text>
  <g
     id="g845">
    <path
       id="path1518"
       d="M 20.039062 16 C 15.607062 16 12.039062 19.568 12.039062 24 L 12.039062 108 C 12.039062 112.432 15.607063 116 20.039062 116 L 59.996094 116 L 64.039062 116 L 107.33398 116 C 113.41027 116 116 111.48425 116 105.875 L 116 66 L 64.039062 66 L 64.039062 16 L 20.039062 16 z "
       style="opacity:1;fill:#070707;fill-opacity:1;stroke:none;stroke-width:1.41549647;stroke-linecap:butt;stroke-linejoin:miter;stroke-miterlimit:4;stroke-dasharray:none;stroke-dashoffset:0;stroke-opacity:1;marker:none;marker-start:none;marker-mid:none;marker-end:none;paint-order:normal" />
    <path
       id="path1520"
       d="M 20.039062 12 C 15.607062 12 12.039062 15.568 12.039062 20 L 12.039062 104 C 12.039062 108.432 15.607063 112 20.039062 112 L 60.039062 112 L 64.039062 112 L 108.04102 112 C 112.47302 112 116.04102 108.432 116.04102 104 L 116.04102 20 C 116.04102 15.568 112.47302 12 108.04102 12 L 64.039062 12 L 60.039062 12 L 20.039062 12 z "
       style="display:inline;opacity:1;fill:#252627;fill-opacity:1;stroke:none;stroke-width:0.25;stroke-linecap:butt;stroke-linejoin:miter;stroke-miterlimit:4;stroke-dasharray:none;stroke-dashoffset:0;stroke-opacity:1;marker:none;marker-start:none;marker-mid:none;marker-end:none;paint-order:normal;enable-background:new" />
    <path
       sodipodi:nodetypes="ccccccc"
       inkscape:connector-curvature="0"
       id="path4730"
       d="m 47.711863,98 25,-35 -25,-35 H 57.711864 L 82.711863,63 57.711864,98.000001 Z"
       inkscape:transform-center-y="-0.16033975"
       inkscape:transform-center-x="-3.1673302"
       style="fill:#e5a50a;fill-opacity:1;stroke-width:0.34486151;stroke-miterlimit:4;stroke-dasharray:none" />
    <path
       style="fill:#e5a50a;fill-opacity:1;stroke-width:0.34486151;stroke-miterlimit:4;stroke-dasharray:none"
       inkscape:transform-center-x="-3.1673302"
       inkscape:transform-center-y="-0.16033975"
       d="m 67.711863,98 25,-35 -25,-35 H 77.711864 L 102.71186,63 77.711864,98.000001 Z"
       id="path903"
       inkscape:connector-curvature="0"
       sodipodi:nodetypes="ccccccc" />
    <path
       style="fill:#e5a50a;fill-opacity:1;stroke-width:0.34486151;stroke-miterlimit:4;stroke-dasharray:none"
       inkscape:transform-center-x="-3.1673302"
       inkscape:transform-center-y="-0.16033975"
       d="m 27.711863,98 25,-35 -25,-35 H 37.711864 L 62.711863,63 37.711864,98.000001 Z"
       id="path909"
       inkscape:connector-curvature="0"
       sodipodi:nodetypes="ccccccc" />
    <path
       style="opacity:1;fill:#e5a50a;fill-opacity:1;stroke-width:0.85134691"
       d="m 35,28 h 20 v 7.152543 L 35,35.016949 Z"
       id="path825"
       inkscape:connector-curvature="0"
       sodipodi:nodetypes="ccccc" />
    <path
       sodipodi:nodetypes="ccccc"
       inkscape:connector-curvature="0"
       id="path827"
       d="M 55,91.254237 75,91.118644 V 98 l -20,0.271186 z"
       style="opacity:1;fill:#e5a50a;fill-opacity:1;stroke-width:0.85134691" />
  </g>
</svg>
