<?xml version="1.0" encoding="UTF-8" standalone="no"?>
<svg
   xmlns:dc="http://purl.org/dc/elements/1.1/"
   xmlns:cc="http://creativecommons.org/ns#"
   xmlns:rdf="http://www.w3.org/1999/02/22-rdf-syntax-ns#"
   xmlns:svg="http://www.w3.org/2000/svg"
   xmlns="http://www.w3.org/2000/svg"
   xmlns:xlink="http://www.w3.org/1999/xlink"
   xmlns:sodipodi="http://sodipodi.sourceforge.net/DTD/sodipodi-0.dtd"
   xmlns:inkscape="http://www.inkscape.org/namespaces/inkscape"
   viewBox="0 0 128 128"
   style="display:inline;enable-background:new"
   version="1.0"
   id="svg11300"
   height="128"
   width="128"
   sodipodi:docname="xournal.svg"
   inkscape:version="0.92.4 (5da689c313, 2019-01-14)">
  <sodipodi:namedview
     pagecolor="#ffffff"
     bordercolor="#666666"
     borderopacity="1"
     objecttolerance="10"
     gridtolerance="10"
     guidetolerance="10"
     inkscape:pageopacity="0"
     inkscape:pageshadow="2"
     inkscape:window-width="640"
     inkscape:window-height="480"
     id="namedview59"
     showgrid="false"
     inkscape:zoom="5.078125"
     inkscape:cx="80.275513"
     inkscape:cy="58.883071"
     inkscape:current-layer="svg11300" />
  <title
     id="title4162">Adwaita Icon Template</title>
  <defs
     id="defs3">
    <linearGradient
       id="linearGradient1038">
      <stop
         style="stop-color:#c0bfbc;stop-opacity:1"
         offset="0"
         id="stop1026" />
      <stop
         id="stop1028"
         offset="0.04545454"
         style="stop-color:#ffffff;stop-opacity:1" />
      <stop
         id="stop1030"
         offset="0.09090909"
         style="stop-color:#deddda;stop-opacity:1" />
      <stop
         id="stop1032"
         offset="0.90909088"
         style="stop-color:#deddda;stop-opacity:1" />
      <stop
         style="stop-color:#ffffff;stop-opacity:1"
         offset="0.95454544"
         id="stop1034" />
      <stop
         style="stop-color:#c0bfbc;stop-opacity:1"
         offset="1"
         id="stop1036" />
    </linearGradient>
    <clipPath
       id="clipPath2213"
       clipPathUnits="userSpaceOnUse">
      <rect
         ry="8"
         rx="8"
         y="-188"
         x="160"
         height="56"
         width="16"
         id="rect2215"
         style="display:inline;opacity:1;vector-effect:none;fill:none;fill-opacity:1;stroke:#000000;stroke-width:1;stroke-linecap:butt;stroke-linejoin:miter;stroke-miterlimit:4;stroke-dasharray:none;stroke-dashoffset:0;stroke-opacity:1;marker:none;marker-start:none;marker-mid:none;marker-end:none;paint-order:normal;enable-background:new" />
    </clipPath>
    <linearGradient
       id="linearGradient1005">
      <stop
         style="stop-color:#d0bb8e;stop-opacity:1"
         offset="0"
         id="stop1001" />
      <stop
         style="stop-color:#ffffff;stop-opacity:1"
         offset="1"
         id="stop1003" />
    </linearGradient>
    <linearGradient
       id="linearGradient1351-3">
      <stop
         id="stop1347"
         offset="0"
         style="stop-color:#d5d3cf;stop-opacity:1" />
      <stop
         id="stop1349-6"
         offset="1"
         style="stop-color:#ffffff;stop-opacity:1" />
    </linearGradient>
    <linearGradient
       gradientTransform="translate(-135.99999,172)"
       gradientUnits="userSpaceOnUse"
       y2="-276"
       x2="115.99999"
       y1="-276"
       x1="27.99999"
       id="linearGradient1159"
       xlink:href="#linearGradient1038" />
    <linearGradient
       gradientTransform="matrix(0.07621224,-0.44419723,0.44419725,-0.07621223,77.725794,159.83807)"
       y2="-127.39915"
       x2="158.51802"
       y1="-97.698288"
       x1="128.81717"
       gradientUnits="userSpaceOnUse"
       id="linearGradient1103"
       xlink:href="#linearGradient1005" />
    <clipPath
       id="clipPath1609-7"
       clipPathUnits="userSpaceOnUse">
      <path
         style="fill:#e74747;stroke:none;stroke-width:0.25px;stroke-linecap:butt;stroke-linejoin:miter;stroke-opacity:1"
         d="m 252,116 28,-28 v -8 h -36 v 36 z"
         id="path1611-5" />
    </clipPath>
    <linearGradient
       y2="72"
       x2="340"
       y1="76"
       x1="344"
       gradientTransform="matrix(0.25,0,0,0.25,180,83)"
       gradientUnits="userSpaceOnUse"
       id="linearGradient1130"
       xlink:href="#linearGradient1351-3" />
    <clipPath
       id="clipPath1062"
       clipPathUnits="userSpaceOnUse">
      <rect
         transform="scale(-1)"
         style="opacity:1;vector-effect:none;fill:#f6f5f4;fill-opacity:1;stroke:none;stroke-width:13.71876526;stroke-linecap:butt;stroke-linejoin:miter;stroke-miterlimit:4;stroke-dasharray:none;stroke-dashoffset:0;stroke-opacity:1;marker:none;marker-start:none;marker-mid:none;marker-end:none;paint-order:normal"
         id="rect1064"
         width="88"
         height="108"
         x="-108"
         y="-116"
         rx="8"
         ry="8"
         clip-path="none" />
    </clipPath>
  </defs>
  <metadata
     id="metadata4">
    <rdf:RDF>
      <cc:Work
         rdf:about="">
        <dc:format>image/svg+xml</dc:format>
        <dc:type
           rdf:resource="http://purl.org/dc/dcmitype/StillImage" />
        <dc:creator>
          <cc:Agent>
            <dc:title>GNOME Design Team</dc:title>
          </cc:Agent>
        </dc:creator>
        <dc:source />
        <cc:license
           rdf:resource="http://creativecommons.org/licenses/by-sa/4.0/" />
        <dc:title>Adwaita Icon Template</dc:title>
        <dc:subject>
          <rdf:Bag />
        </dc:subject>
        <dc:date />
        <dc:rights>
          <cc:Agent>
            <dc:title />
          </cc:Agent>
        </dc:rights>
        <dc:publisher>
          <cc:Agent>
            <dc:title />
          </cc:Agent>
        </dc:publisher>
        <dc:identifier />
        <dc:relation />
        <dc:language />
        <dc:coverage />
        <dc:description />
        <dc:contributor>
          <cc:Agent>
            <dc:title />
          </cc:Agent>
        </dc:contributor>
      </cc:Work>
      <cc:License
         rdf:about="http://creativecommons.org/licenses/by-sa/4.0/">
        <cc:permits
           rdf:resource="http://creativecommons.org/ns#Reproduction" />
        <cc:permits
           rdf:resource="http://creativecommons.org/ns#Distribution" />
        <cc:requires
           rdf:resource="http://creativecommons.org/ns#Notice" />
        <cc:requires
           rdf:resource="http://creativecommons.org/ns#Attribution" />
        <cc:permits
           rdf:resource="http://creativecommons.org/ns#DerivativeWorks" />
        <cc:requires
           rdf:resource="http://creativecommons.org/ns#ShareAlike" />
      </cc:License>
    </rdf:RDF>
  </metadata>
  <g
     id="layer2"
     style="display:none"
     transform="translate(0,-172)">
    <g
       style="display:inline;enable-background:new"
       id="g9211">
      <rect
         y="172"
         x="9.2651362e-08"
         height="128"
         width="128"
         id="rect13805"
         style="display:inline;overflow:visible;visibility:visible;fill:#f0f0f0;fill-opacity:1;fill-rule:nonzero;stroke:none;stroke-width:0.5;marker:none;enable-background:accumulate" />
      <circle
         style="display:inline;opacity:0.1;vector-effect:none;fill:none;fill-opacity:1;stroke:#000000;stroke-width:0.99000001;stroke-linecap:butt;stroke-linejoin:miter;stroke-miterlimit:4;stroke-dasharray:0.99000001, 0.99000001;stroke-dashoffset:0;stroke-opacity:1;marker:none;marker-start:none;marker-mid:none;marker-end:none;paint-order:normal;enable-background:new"
         id="circle2892"
         r="59.504131"
         cy="236"
         cx="64.000031" />
      <rect
         style="display:inline;opacity:0.1;vector-effect:none;fill:none;fill-opacity:1;stroke:#000000;stroke-width:0.99000001;stroke-linecap:butt;stroke-linejoin:miter;stroke-miterlimit:4;stroke-dasharray:0.99000001, 0.99000001;stroke-dashoffset:0;stroke-opacity:1;marker:none;marker-start:none;marker-mid:none;marker-end:none;paint-order:normal;enable-background:new"
         id="rect2894"
         width="87.009987"
         height="111.01005"
         x="20.495007"
         y="180.49496"
         rx="8.701004"
         ry="7.9292889" />
      <rect
         style="display:inline;opacity:0.1;vector-effect:none;fill:none;fill-opacity:1;stroke:#000000;stroke-width:0.99000001;stroke-linecap:butt;stroke-linejoin:miter;stroke-miterlimit:4;stroke-dasharray:0.99000001, 0.99000001;stroke-dashoffset:0;stroke-opacity:1;marker:none;marker-start:none;marker-mid:none;marker-end:none;paint-order:normal;enable-background:new"
         id="rect2896"
         width="103.00952"
         height="103.00952"
         x="12.495266"
         y="184.49524"
         rx="7.9238095"
         ry="7.9238095" />
      <rect
         style="display:inline;opacity:0.1;vector-effect:none;fill:none;fill-opacity:1;stroke:#000000;stroke-width:0.99000001;stroke-linecap:butt;stroke-linejoin:miter;stroke-miterlimit:4;stroke-dasharray:0.99000001, 0.99000001;stroke-dashoffset:0;stroke-opacity:1;marker:none;marker-start:none;marker-mid:none;marker-end:none;paint-order:normal;enable-background:new"
         id="rect2898"
         width="111.01004"
         height="87.010048"
         x="8.4950066"
         y="200.49496"
         rx="7.9292889"
         ry="8.701005" />
      <path
         inkscape:connector-curvature="0"
         style="display:inline;fill:none;stroke:#62a0ea;stroke-width:2;stroke-linecap:butt;stroke-linejoin:miter;stroke-miterlimit:4;stroke-dasharray:none;stroke-opacity:1;enable-background:new"
         d="M 2.6203015e-5,288.99999 H 128.00003"
         id="path2900" />
    </g>
  </g>
  <rect
     clip-path="none"
     ry="8"
     rx="8"
     y="-122"
     x="-108"
     height="30.25"
     width="88"
     id="rect1167"
     style="opacity:1;vector-effect:none;fill:#a51d2d;fill-opacity:1;stroke:none;stroke-width:13.71876526;stroke-linecap:butt;stroke-linejoin:miter;stroke-miterlimit:4;stroke-dasharray:none;stroke-dashoffset:0;stroke-opacity:1;marker:none;marker-start:none;marker-mid:none;marker-end:none;paint-order:normal"
     transform="scale(-1)" />
  <g
     transform="matrix(0.25,0,0,0.25,-374,30.04808)"
     clip-path="url(#clipPath2213)"
     id="g8005"
     style="display:inline;enable-background:new" />
  <g
     transform="matrix(0.25,0,0,0.25,-424,30.04808)"
     clip-path="url(#clipPath2213)"
     id="g8015"
     style="display:inline;enable-background:new" />
  <g
     transform="matrix(0.25,0,0,0.25,-414,30.04808)"
     clip-path="url(#clipPath2213)"
     id="g8025"
     style="display:inline;enable-background:new" />
  <g
     transform="matrix(0.25,0,0,0.25,-404,30.04808)"
     clip-path="url(#clipPath2213)"
     id="g8035"
     style="display:inline;enable-background:new" />
  <g
     transform="matrix(0.25,0,0,0.25,-394,30.04808)"
     clip-path="url(#clipPath2213)"
     id="g8045"
     style="display:inline;enable-background:new" />
  <g
     transform="matrix(0.25,0,0,0.25,-384,30.04808)"
     clip-path="url(#clipPath2213)"
     id="g8055"
     style="display:inline;enable-background:new" />
  <rect
     transform="scale(-1)"
     style="opacity:1;vector-effect:none;fill:url(#linearGradient1159);fill-opacity:1;stroke:none;stroke-width:13.71876526;stroke-linecap:butt;stroke-linejoin:miter;stroke-miterlimit:4;stroke-dasharray:none;stroke-dashoffset:0;stroke-opacity:1;marker:none;marker-start:none;marker-mid:none;marker-end:none;paint-order:normal"
     id="rect1151"
     width="88"
     height="40"
     x="-108"
     y="-120"
     rx="8"
     ry="8"
     clip-path="none" />
  <rect
     clip-path="none"
     ry="8"
     rx="8"
     y="-116"
     x="-108"
     height="108"
     width="88"
     id="rect1161"
     style="opacity:1;vector-effect:none;fill:#f6f5f4;fill-opacity:1;stroke:none;stroke-width:13.71876526;stroke-linecap:butt;stroke-linejoin:miter;stroke-miterlimit:4;stroke-dasharray:none;stroke-dashoffset:0;stroke-opacity:1;marker:none;marker-start:none;marker-mid:none;marker-end:none;paint-order:normal"
     transform="scale(-1)" />
  <g
     transform="translate(-4,-170)"
     id="g1153">
    <path
       style="display:inline;opacity:1;fill:#d5d3cf;fill-opacity:1;stroke:none;stroke-width:4;stroke-linecap:square;stroke-linejoin:round;stroke-miterlimit:4;stroke-dasharray:none;stroke-dashoffset:0;stroke-opacity:1;enable-background:new"
       d="m 32,188 c -1.10457,0 -2,0.89543 -2,2 0,1.10457 0.89543,2 2,2 1.10457,0 2,-0.89543 2,-2 0,-1.10457 -0.89543,-2 -2,-2 z m 8,0 c -1.10457,0 -2,0.89543 -2,2 0,1.10457 0.89543,2 2,2 1.10457,0 2,-0.89543 2,-2 0,-1.10457 -0.89543,-2 -2,-2 z m 8,0 c -1.10457,0 -2,0.89543 -2,2 0,1.10457 0.89543,2 2,2 1.10457,0 2,-0.89543 2,-2 0,-1.10457 -0.89543,-2 -2,-2 z m 8,0 c -1.10457,0 -2,0.89543 -2,2 0,1.10457 0.89543,2 2,2 1.10457,0 2,-0.89543 2,-2 0,-1.10457 -0.89543,-2 -2,-2 z m 8,0 c -1.10457,0 -2,0.89543 -2,2 0,1.10457 0.89543,2 2,2 1.10457,0 2,-0.89543 2,-2 0,-1.10457 -0.89543,-2 -2,-2 z m 8,0 c -1.10457,0 -2,0.89543 -2,2 0,1.10457 0.89543,2 2,2 1.10457,0 2,-0.89543 2,-2 0,-1.10457 -0.89543,-2 -2,-2 z m 8,0 c -1.10457,0 -2,0.89543 -2,2 0,1.10457 0.89543,2 2,2 1.10457,0 2,-0.89543 2,-2 0,-1.10457 -0.89543,-2 -2,-2 z m 8,0 c -1.10457,0 -2,0.89543 -2,2 0,1.10457 0.89543,2 2,2 1.10457,0 2,-0.89543 2,-2 0,-1.10457 -0.89543,-2 -2,-2 z m 8,0 c -1.10457,0 -2,0.89543 -2,2 0,1.10457 0.89543,2 2,2 1.10457,0 2,-0.89543 2,-2 0,-1.10457 -0.89543,-2 -2,-2 z"
       id="path950-3-7"
       inkscape:connector-curvature="0" />
    <circle
       r="2"
       cy="190"
       cx="-104"
       id="path1148"
       style="opacity:1;vector-effect:none;fill:#d5d3cf;fill-opacity:1;stroke:none;stroke-width:16;stroke-linecap:butt;stroke-linejoin:round;stroke-miterlimit:4;stroke-dasharray:none;stroke-dashoffset:0;stroke-opacity:1"
       transform="scale(-1,1)" />
    <path
       d="m 112,192 a 2,2 0 0 1 -1.73205,-1 2,2 0 0 1 0,-2 A 2,2 0 0 1 112,188"
       style="opacity:1;vector-effect:none;fill:#d5d3cf;fill-opacity:1;stroke:none;stroke-width:16;stroke-linecap:butt;stroke-linejoin:round;stroke-miterlimit:4;stroke-dasharray:none;stroke-dashoffset:0;stroke-opacity:1"
       id="circle16770"
       inkscape:connector-curvature="0" />
    <path
       transform="scale(-1,1)"
       d="m -24,192 a 2,2 0 0 1 -1.732051,-1 2,2 0 0 1 0,-2 A 2,2 0 0 1 -24,188"
       style="display:inline;opacity:1;vector-effect:none;fill:#d5d3cf;fill-opacity:1;stroke:none;stroke-width:16;stroke-linecap:butt;stroke-linejoin:round;stroke-miterlimit:4;stroke-dasharray:none;stroke-dashoffset:0;stroke-opacity:1;enable-background:new"
       id="circle16770-3"
       inkscape:connector-curvature="0" />
  </g>
  <rect
     style="display:inline;opacity:1;fill:url(#linearGradient1130);fill-opacity:1;stroke:none;stroke-width:0.5;stroke-linecap:butt;stroke-linejoin:miter;stroke-miterlimit:4;stroke-dasharray:none;stroke-dashoffset:0;stroke-opacity:1;marker:none;marker-start:none;marker-mid:none;marker-end:none;paint-order:normal;enable-background:new"
     id="rect1056-3"
     width="36"
     height="36"
     x="252"
     y="88"
     rx="11.2"
     ry="11.2"
     transform="matrix(0,0.71428571,0.71428571,0,25.142858,-83.999992)"
     clip-path="url(#clipPath1609-7)" />
  <path
     clip-path="url(#clipPath1062)"
     id="path1047"
     d="M 100,16 32,84 v 20 h 22 l 68,-68 -7.86719,-5.761719 -0.0742,-0.07227 -8.22461,-8.22461 z"
     style="opacity:0.2;vector-effect:none;fill:#000000;fill-opacity:1;stroke:none;stroke-width:12.48982716;stroke-linecap:round;stroke-linejoin:miter;stroke-miterlimit:4;stroke-dasharray:none;stroke-dashoffset:0;stroke-opacity:1;marker:none;marker-start:none;marker-mid:none;marker-end:none;paint-order:normal"
     inkscape:connector-curvature="0" />
  <path
     style="opacity:1;vector-effect:none;fill:url(#linearGradient1103);fill-opacity:1;stroke:none;stroke-width:12.48982716;stroke-linecap:round;stroke-linejoin:miter;stroke-miterlimit:4;stroke-dasharray:none;stroke-dashoffset:0;stroke-opacity:1;marker:none;marker-start:none;marker-mid:none;marker-end:none;paint-order:normal"
     d="M 32,104 V 84 l 20,20 z"
     id="path1038"
     inkscape:connector-curvature="0" />
  <path
     id="path1042"
     d="m 31.999996,104 4e-6,-8 8,8 z"
     style="display:inline;opacity:1;vector-effect:none;fill:#424048;fill-opacity:1;stroke:none;stroke-width:12.48982716;stroke-linecap:round;stroke-linejoin:miter;stroke-miterlimit:4;stroke-dasharray:none;stroke-dashoffset:0;stroke-opacity:1;marker:none;marker-start:none;marker-mid:none;marker-end:none;paint-order:normal;enable-background:new"
     inkscape:connector-curvature="0" />
  <path
     id="path1044"
     d="m 50,102 -16,-16 67.94696,-67.94695 16,16 z"
     style="display:inline;fill:#3584e4;fill-opacity:1;stroke:none;stroke-width:0.50643784px;stroke-linecap:butt;stroke-linejoin:miter;stroke-opacity:1;enable-background:new"
     inkscape:connector-curvature="0" />
  <path
     id="path1046"
     d="M 37.887772,89.88776 32,84 l 68.00001,-67.99999 5.83472,5.9408 z"
     style="display:inline;opacity:1;fill:#62a0ea;fill-opacity:1;stroke:none;stroke-width:0.3581056px;stroke-linecap:butt;stroke-linejoin:miter;stroke-opacity:1;enable-background:new"
     inkscape:connector-curvature="0" />
  <path
     id="path1048"
     d="M 46.112246,98.11223 52,104 120,36 114.0592,30.16528 Z"
     style="display:inline;opacity:1;fill:#1c71d8;fill-opacity:1;stroke:none;stroke-width:0.3581056px;stroke-linecap:butt;stroke-linejoin:miter;stroke-opacity:1;enable-background:new"
     inkscape:connector-curvature="0" />
</svg>
