<?xml version="1.0" encoding="UTF-8" standalone="no"?>
<svg
   width="15.999999"
   height="16"
   viewBox="0 0 15.999999 16"
   version="1.1"
   id="svg4043"
   sodipodi:docname="discord.svg"
   inkscape:version="1.1.2 (0a00cf5339, 2022-02-04)"
   xmlns:inkscape="http://www.inkscape.org/namespaces/inkscape"
   xmlns:sodipodi="http://sodipodi.sourceforge.net/DTD/sodipodi-0.dtd"
   xmlns="http://www.w3.org/2000/svg"
   xmlns:svg="http://www.w3.org/2000/svg"
   xmlns:rdf="http://www.w3.org/1999/02/22-rdf-syntax-ns#"
   xmlns:cc="http://creativecommons.org/ns#"
   xmlns:dc="http://purl.org/dc/elements/1.1/">
  <sodipodi:namedview
     id="namedview6"
     pagecolor="#ffffff"
     bordercolor="#666666"
     borderopacity="1.0"
     inkscape:pageshadow="2"
     inkscape:pageopacity="0.0"
     inkscape:pagecheckerboard="0"
     showgrid="false"
     inkscape:zoom="13.640942"
     inkscape:cx="-2.9690032"
     inkscape:cy="2.5291508"
     inkscape:window-width="3440"
     inkscape:window-height="1377"
     inkscape:window-x="0"
     inkscape:window-y="0"
     inkscape:window-maximized="1"
     inkscape:current-layer="svg4043" />
  <defs
     id="defs4037" />
  <metadata
     id="metadata4040">
    <rdf:RDF>
      <cc:Work
         rdf:about="">
        <dc:format>image/svg+xml</dc:format>
        <dc:type
           rdf:resource="http://purl.org/dc/dcmitype/StillImage" />
      </cc:Work>
    </rdf:RDF>
  </metadata>
  <path
     d="M 13.37279,2.9860998 C 12.379189,2.5212166 11.31678,2.1833591 10.206064,1.9909817 10.069658,2.2376046 9.9102904,2.5693153 9.8004126,2.8331946 8.6196932,2.655629 7.4498311,2.655629 6.290824,2.8331946 6.1809706,2.5693153 6.0179857,2.2376046 5.8803532,1.9909817 4.7684391,2.1833591 3.7048121,2.5224599 2.7112103,2.9885619 0.70710455,6.0170241 0.16382618,8.9702645 0.43546537,11.881574 1.7646929,12.874206 3.0528746,13.477203 4.3193173,13.871787 4.6320083,13.441433 4.9108878,12.983958 5.1511333,12.501822 4.6935745,12.327961 4.255332,12.113404 3.8412429,11.864319 c 0.1098534,-0.08139 0.2173108,-0.166478 0.3211293,-0.254028 2.5256425,1.18131 5.2698231,1.18131 7.7652948,0 0.105037,0.08755 0.212473,0.172642 0.321128,0.254028 -0.415307,0.250307 -0.85475,0.464861 -1.31231,0.638746 0.240246,0.480893 0.517927,0.93961 0.831816,1.369942 1.267662,-0.394584 2.55704,-0.997558 3.886269,-1.991433 C 15.973299,8.5066255 15.110089,5.580507 13.37279,2.9860998 Z M 5.495218,10.091145 c -0.7581726,0 -1.3799351,-0.7078015 -1.3799351,-1.5697255 0,-0.8619284 0.6084872,-1.5709479 1.3799351,-1.5709479 0.7714722,0 1.393214,0.7077797 1.3799399,1.5709479 0.00105,0.861924 -0.6084677,1.5697255 -1.3799399,1.5697255 z m 5.099603,0 c -0.7581741,0 -1.3799402,-0.7078015 -1.3799402,-1.5697255 0,-0.8619284 0.6084677,-1.5709479 1.3799402,-1.5709479 0.771448,0 1.393214,0.7077797 1.379935,1.5709479 0,0.861924 -0.608487,1.5697255 -1.379935,1.5697255 z"
     fill="#5865f2"
     fill-rule="nonzero"
     id="path824"
     style="fill:#bebebe;fill-opacity:1;stroke-width:0.0599592"
     inkscape:transform-center-x="0.14633108"
     inkscape:transform-center-y="1.8278498" />
</svg>
