<?xml version="1.0" encoding="UTF-8" standalone="no"?>
<svg
   height="128px"
   viewBox="0 0 128 128"
   width="128px"
   version="1.1"
   id="svg32"
   sodipodi:docname="google-chrome.svg"
   inkscape:version="1.2.1 (9c6d41e410, 2022-07-14)"
   xmlns:inkscape="http://www.inkscape.org/namespaces/inkscape"
   xmlns:sodipodi="http://sodipodi.sourceforge.net/DTD/sodipodi-0.dtd"
   xmlns="http://www.w3.org/2000/svg"
   xmlns:svg="http://www.w3.org/2000/svg">
  <defs
     id="defs36">
    <linearGradient
       id="a-3"
       gradientTransform="matrix(1.008894,0,0,1.00892,143.40591,36.691481)"
       gradientUnits="userSpaceOnUse"
       x1="8"
       x2="120"
       y1="236"
       y2="236">
      <stop
         offset="0"
         stop-color="#498fe5"
         id="stop2-6" />
      <stop
         offset="0.186734"
         stop-color="#1a5fb4"
         stop-opacity="0.984314"
         id="stop4-7" />
      <stop
         offset="0.392857"
         stop-color="#2579e0"
         stop-opacity="0.968627"
         id="stop6-5" />
      <stop
         offset="0.617036"
         stop-color="#5596e6"
         stop-opacity="0.956863"
         id="stop8-3" />
      <stop
         offset="0.855136"
         stop-color="#134583"
         id="stop10-5" />
      <stop
         offset="1"
         stop-color="#2677df"
         id="stop12-6" />
    </linearGradient>
  </defs>
  <sodipodi:namedview
     id="namedview34"
     pagecolor="#ffffff"
     bordercolor="#000000"
     borderopacity="0.25"
     inkscape:showpageshadow="2"
     inkscape:pageopacity="0.0"
     inkscape:pagecheckerboard="0"
     inkscape:deskcolor="#d1d1d1"
     showgrid="false"
     inkscape:zoom="2"
     inkscape:cx="42.75"
     inkscape:cy="315"
     inkscape:window-width="3440"
     inkscape:window-height="1374"
     inkscape:window-x="0"
     inkscape:window-y="0"
     inkscape:window-maximized="1"
     inkscape:current-layer="svg32" />
  <linearGradient
     id="a"
     gradientTransform="matrix(1.0043282,0,0,1.00892,3.9204966,128.96419)"
     gradientUnits="userSpaceOnUse"
     x1="8"
     x2="120"
     y1="236"
     y2="236">
    <stop
       offset="0"
       stop-color="#498fe5"
       id="stop2"
       style="stop-color:#ffffff;stop-opacity:0;" />
    <stop
       offset="0.18673401"
       stop-color="#1a5fb4"
       stop-opacity="0.984314"
       id="stop4"
       style="stop-color:#ffffff;stop-opacity:1;" />
    <stop
       offset="0.39285699"
       stop-color="#2579e0"
       stop-opacity="0.968627"
       id="stop6"
       style="stop-color:#ffffff;stop-opacity:0.72451174;" />
    <stop
       offset="0.61703598"
       stop-color="#5596e6"
       stop-opacity="0.956863"
       id="stop8"
       style="stop-color:#ffffff;stop-opacity:0.76375318;" />
    <stop
       offset="0.85513598"
       stop-color="#134583"
       id="stop10"
       style="stop-color:#ffffff;stop-opacity:1;" />
    <stop
       offset="1"
       stop-color="#2677df"
       id="stop12"
       style="stop-color:#ffffff;stop-opacity:0;" />
  </linearGradient>
  <linearGradient
     id="b"
     gradientTransform="matrix(0.659952,0.659952,-0.659952,0.659952,-25.130565,-125.61368)"
     gradientUnits="userSpaceOnUse"
     x1="139.477295"
     x2="25.039328"
     y1="259.588104"
     y2="189.370285">
    <stop
       offset="0"
       stop-color="#59cde7"
       id="stop15" />
    <stop
       offset="1"
       stop-color="#1c71d8"
       id="stop17" />
  </linearGradient>
  <path
     style="fill:#0a5a33;fill-opacity:1;stroke-width:2.0073"
     d="m 16.940053,32.934492 c -0.96307,1.475248 -1.85385,3.056207 -2.75654,4.621466 -4.3502997,8.184622 -2.196626,12.687311 -5.4199605,23.685432 0.0474,39.25494 25.4138605,60.69532 59.3082605,60.39601 6.987377,-0.42374 2.55458,-3.28309 2.86967,-3.43439 l 19.94104,-42.069231 c -2.1231,3.4866 -10.96854,7.95103 -14.7432,10.14832 -12.07844,7.03086 -27.41682,2.48625 -34.39039,-9.69168 z"
     id="path6-3"
     sodipodi:nodetypes="ccccccccc" />
  <path
     style="fill:#c79100;fill-opacity:1;stroke-width:2.0145"
     d="m 87.374343,79.936299 c -1.3e-4,0.003 0,0.13383 0,0.13383 l -0.6292,0.95264 -22.048905,35.047311 3.552885,5.56281 c 1.655119,-0.0973 4.579243,-0.57652 6.23591,-0.81195 30.551937,-5.88213 46.054437,-27.605172 45.733697,-56.488931 0.2909,-11.617818 -2.65953,-19.646043 -7.63694,-28.216926 -95.217627,-7.819529 -3.15189,5.629477 -25.207447,43.821216 z"
     id="path8-6"
     sodipodi:nodetypes="ccccccccc" />
  <path
     style="fill:#109f5b;stroke-width:2.00003"
     d="m 18.072345,29.032511 c -0.963514,1.463906 -1.854714,3.032711 -2.75782,4.585938 A 55.999996,55.999997 0 0 0 8.6739052,60.024697 55.999996,55.999997 0 0 0 64.673898,116.0247 55.999996,55.999997 0 0 0 65.533284,115.9935 L 92.048901,71.899735 C 89.924812,75.359534 81.075305,79.789645 77.298895,81.97005 65.214887,88.946839 49.869446,84.437176 42.892652,72.352857 Z"
     id="path6" />
  <path
     style="fill:#ffce41;stroke-width:2.00003"
     d="m 64.736396,32.024701 c -0.06183,0 8.888056,3.991791 12.664065,6.171874 9.649747,5.571359 10.656931,25.469419 10.679681,33.523437 l 1.617195,0.937499 -1.648439,2.851562 c -1.3e-4,0.0028 0,0.132803 0,0.132803 L 87.4239,76.587199 64.676619,116.02391 c 0.148438,0.004 0.294315,-0.0141 0.442594,-0.0147 0.773936,-0.0126 1.547543,-0.0414 2.320309,-0.0859 0.448527,-0.0208 0.896343,-0.0232 1.343749,-0.0548 1.764353,-0.13023 3.521533,-0.34403 5.265626,-0.64062 0.114963,-0.0192 0.228916,-0.0427 0.343759,-0.0626 26.762554,-4.71624 46.276584,-27.965715 46.281254,-55.140656 -0.0253,-9.837634 -2.64178,-19.495006 -7.58593,-27.999999 z"
     id="path8" />
  <path
     style="fill:#dd4d3e;stroke-width:2.00003"
     d="m 64.650457,4.0247005 a 55.999996,55.999997 0 0 0 -0.968747,0.031238 55.999996,55.999997 0 0 0 -2.968747,0.1093746 55.999996,55.999997 0 0 0 -0.164086,0.023439 55.999996,55.999997 0 0 0 -5.062503,0.609375 c -0.171389,0.028162 -0.344558,0.04907 -0.515627,0.078125 -0.01031,0.00179 -0.02081,0.00595 -0.03122,0.00784 A 55.999996,55.999997 0 0 0 49.697302,6.0637962 55.999996,55.999997 0 0 0 39.27543,10.118484 55.999996,55.999997 0 0 0 38.033248,10.829421 55.999996,55.999997 0 0 0 16.20513,32.063796 l 22.757806,39.421869 0.47657,0.953129 0.117174,0.07033 1.070323,1.859375 9.820295,7.890625 2.726566,-1.164062 3.125,1.968748 C 55.929078,82.38226 55.558418,81.365745 55.197311,80.227858 L 73.564504,72.376301 54.556696,39.446613 c 1.738841,-4.011426 4.779282,-6.824602 10.117182,-7.421875 h 48.414082 a 55.999996,55.999997 0 0 0 -3.03908,-4.703124 55.999996,55.999997 0 0 0 -3.42187,-4.281251 55.999996,55.999997 0 0 0 -0.14844,-0.171882 55.999996,55.999997 0 0 0 -3.63281,-3.726555 55.999996,55.999997 0 0 0 -0.38283,-0.351562 55.999996,55.999997 0 0 0 -3.835938,-3.210937 55.999996,55.999997 0 0 0 -0.539049,-0.406251 55.999996,55.999997 0 0 0 -3.960945,-2.695312 55.999996,55.999997 0 0 0 -0.765622,-0.46875 A 55.999996,55.999997 0 0 0 89.377,9.8372384 55.999996,55.999997 0 0 0 88.244188,9.2981757 55.999996,55.999997 0 0 0 84.416074,7.6966134 55.999996,55.999997 0 0 0 82.939504,7.1497371 55.999996,55.999997 0 0 0 79.252005,6.0247387 55.999996,55.999997 0 0 0 77.400441,5.5481758 55.999996,55.999997 0 0 0 73.955124,4.860676 55.999996,55.999997 0 0 0 71.759813,4.5325511 a 55.999996,55.999997 0 0 0 -3.140618,-0.3125 55.999996,55.999997 0 0 0 -3.945317,-0.1953129 55.999996,55.999997 0 0 0 -0.02361,0 z"
     id="path10" />
  <rect
     style="fill:#ffffff;stroke-width:2.0073"
     width="56.434517"
     height="55.974861"
     x="-88.67543"
     y="-92.634865"
     rx="28.217258"
     ry="27.987431"
     transform="matrix(0,-1,-1,0,0,0)"
     id="rect16" />
  <rect
     style="fill:#4587f3;stroke-width:2.0073"
     width="44.3414"
     height="43.980244"
     x="-82.628883"
     y="-86.63755"
     rx="22.1707"
     ry="21.990122"
     transform="matrix(0,-1,-1,0,0,0)"
     id="rect18" />
  <path
     d="m 207.97461,43.318359 c 30.92969,0 56,25.070312 56,56 v 8.000001 c 0,30.92969 -25.07031,56 -56,56 -30.92969,0 -56,-25.07031 -56,-56 v -8.000001 c 0,-30.929688 25.07031,-56 56,-56 z m 0,0"
     fill="url(#a)"
     id="path20"
     style="fill:url(#a-3)" />
</svg>
