<?xml version="1.0" encoding="UTF-8" standalone="no"?>
<svg
   width="15.999999"
   height="16"
   viewBox="0 0 15.999999 16"
   version="1.1"
   id="svg4043"
   sodipodi:docname="kicad.svg"
   inkscape:version="1.2.1 (9c6d41e410, 2022-07-14)"
   xmlns:inkscape="http://www.inkscape.org/namespaces/inkscape"
   xmlns:sodipodi="http://sodipodi.sourceforge.net/DTD/sodipodi-0.dtd"
   xmlns="http://www.w3.org/2000/svg"
   xmlns:svg="http://www.w3.org/2000/svg"
   xmlns:rdf="http://www.w3.org/1999/02/22-rdf-syntax-ns#"
   xmlns:cc="http://creativecommons.org/ns#"
   xmlns:dc="http://purl.org/dc/elements/1.1/">
  <sodipodi:namedview
     id="namedview6"
     pagecolor="#ffffff"
     bordercolor="#666666"
     borderopacity="1.0"
     inkscape:pageshadow="2"
     inkscape:pageopacity="0.0"
     inkscape:pagecheckerboard="0"
     showgrid="false"
     inkscape:zoom="12.996232"
     inkscape:cx="6.5403572"
     inkscape:cy="15.004349"
     inkscape:window-width="2065"
     inkscape:window-height="1174"
     inkscape:window-x="35"
     inkscape:window-y="32"
     inkscape:window-maximized="0"
     inkscape:current-layer="svg4043"
     inkscape:showpageshadow="2"
     inkscape:deskcolor="#d1d1d1" />
  <defs
     id="defs4037" />
  <metadata
     id="metadata4040">
    <rdf:RDF>
      <cc:Work
         rdf:about="">
        <dc:format>image/svg+xml</dc:format>
        <dc:type
           rdf:resource="http://purl.org/dc/dcmitype/StillImage" />
      </cc:Work>
    </rdf:RDF>
  </metadata>
  <path
     class="cls-11"
     d="M 5.134052,7.4427245 6.8091973,5.3208068 Q 7.322669,4.6719255 7.3227743,4.3504461 A 0.49450897,0.49525767 0 0 0 7.2935962,4.1633874 H 10.217747 A 3.3343905,3.3394387 0 0 0 9.384006,4.9530954 Q 9.2264509,5.1402599 8.9116131,5.5322206 L 6.7157542,8.2668647 9.336501,11.87942 q 0.1865793,0.257298 0.6069126,0.736557 a 2.8151711,2.8194334 0 0 0 0.2860244,0.251315 H 7.2294365 a 0.95866555,0.96011701 0 0 0 0.034907,-0.239696 q 0,-0.321314 -0.4435184,-0.929417 L 5.1340487,9.3951549 v 2.3322591 q 0,0.812552 0.3268913,1.139893 H 2.7176828 A 1.0420743,1.0436521 0 0 0 3.0095914,12.34706 3.5526802,3.5580591 0 0 0 3.0445764,11.733321 V 5.2974339 A 3.554325,3.5597063 0 0 0 3.0095914,4.683695 1.0424213,1.0439996 0 0 0 2.7176828,4.1634479 H 5.46094 Q 5.1340487,4.4908348 5.1340487,5.2974339 Z"
     id="path5475"
     style="fill:#ffffff;stroke-width:0.32872;fill-opacity:1" />
  <path
     class="cls-11"
     d="m 12.972774,6.4723791 v 5.3661279 a 3.7693263,3.7750329 0 0 0 0.02328,0.549482 0.9433234,0.94475163 0 0 0 0.245143,0.479318 h -2.56813 a 0.94496775,0.94639847 0 0 0 0.245142,-0.479318 3.879904,3.8857783 0 0 0 0.02328,-0.549482 V 7.4894703 A 3.7383853,3.7440454 0 0 0 10.918212,6.9458956 0.96362873,0.96508773 0 0 0 10.678863,6.4723791 Z m -1.01572,-3.0571965 a 1.170876,1.1726487 0 0 1 1.167361,1.1691286 1.1673161,1.1690835 0 0 1 -2.334632,0 1.1560317,1.1577819 0 0 1 1.167271,-1.1691286 z"
     id="path5477"
     style="fill:#ffffff;stroke-width:0.32872" />
  <path
     class="cls-12"
     d="M 5.134052,7.4427245 6.8091973,5.3208068 Q 7.322669,4.6719255 7.3227743,4.3504461 A 0.49450897,0.49525767 0 0 0 7.2935962,4.1633874 H 10.217747 A 3.3343905,3.3394387 0 0 0 9.384006,4.9530954 Q 9.2264509,5.1402599 8.9116131,5.5322206 L 6.7157542,8.2668647 9.336501,11.87942 q 0.1865793,0.257298 0.6069126,0.736557 a 2.8151711,2.8194334 0 0 0 0.2860244,0.251315 H 7.2294365 a 0.95866555,0.96011701 0 0 0 0.034907,-0.239696 q 0,-0.321314 -0.4435184,-0.929417 L 5.1340487,9.3951549 v 2.3322591 q 0,0.812552 0.3268913,1.139893 H 2.7176828 A 1.0420743,1.0436521 0 0 0 3.0095914,12.34706 3.5526802,3.5580591 0 0 0 3.0445764,11.733321 V 5.2974339 A 3.554325,3.5597063 0 0 0 3.0095914,4.683695 1.0424213,1.0439996 0 0 0 2.7176828,4.1634479 H 5.46094 Q 5.1340487,4.4908348 5.1340487,5.2974339 Z"
     id="path5479"
     style="fill:#ffffff;fill-opacity:0;stroke-width:0.32872" />
  <path
     class="cls-12"
     d="m 12.972774,6.4723791 v 5.3661279 a 3.7693263,3.7750329 0 0 0 0.02328,0.549482 0.9433234,0.94475163 0 0 0 0.245143,0.479318 h -2.56813 a 0.94496775,0.94639847 0 0 0 0.245142,-0.479318 3.879904,3.8857783 0 0 0 0.02328,-0.549482 V 7.4894703 A 3.7383853,3.7440454 0 0 0 10.918212,6.9458956 0.96362873,0.96508773 0 0 0 10.678863,6.4723791 Z m -1.01572,-3.0571965 a 1.170876,1.1726487 0 0 1 1.167361,1.1691286 1.1673161,1.1690835 0 0 1 -2.334632,0 1.1560317,1.1577819 0 0 1 1.167271,-1.1691286 z"
     id="path5481"
     style="fill:#ffffff;stroke-width:0.32872;fill-opacity:1" />
  <path
     class="cls-16"
     d="M 3.0447592,5.3176945 C 3.0320374,5.1227944 3.0130766,4.9281664 2.9953237,4.7347468 A 0.64942396,0.65040718 0 0 0 2.9288668,4.4627933 2.3196213,2.3231332 0 0 0 2.7766829,4.2191984 l -0.036414,-0.051369 0.063188,-0.00151 q 0.6641485,-0.016619 1.3285219,-0.017904 c 0.2214124,-0.00301 0.4429311,0.00134 0.6644033,0.00214 0.2214734,2.964e-4 0.443052,0.00897 0.6645552,0.013038 -0.2213215,0.010107 -0.4425832,0.024793 -0.6639512,0.031138 -0.2213669,0.00685 -0.4426896,0.017193 -0.6641019,0.020245 q -0.6641629,0.016454 -1.3285219,0.018313 l 0.026762,-0.05288 A 1.8228344,1.825594 0 0 1 2.9825842,4.4364709 0.45709648,0.45778854 0 0 1 3.02854,4.5833862 c 0.00665,0.04998 0.00953,0.09881 0.012434,0.1478823 0.011802,0.1955952 0.00632,0.3911298 0.00377,0.5864228 z"
     id="path5491"
     style="opacity:0.75;fill:#ffffff;stroke-width:0.32872" />
  <ellipse
     style="fill:#ffffff;fill-opacity:1;stroke-width:0.65744;stroke-linecap:round;stroke-linejoin:round"
     id="path6063"
     cx="11.916106"
     cy="4.6185226"
     rx="1.2205321"
     ry="1.2223798" />
</svg>
