<?xml version="1.0" encoding="UTF-8" standalone="no"?>
<svg
   width="15.999999"
   height="16"
   viewBox="0 0 15.999999 16"
   version="1.1"
   id="svg4043"
   sodipodi:docname="skype.svg"
   inkscape:version="1.2.1 (9c6d41e410, 2022-07-14)"
   xmlns:inkscape="http://www.inkscape.org/namespaces/inkscape"
   xmlns:sodipodi="http://sodipodi.sourceforge.net/DTD/sodipodi-0.dtd"
   xmlns="http://www.w3.org/2000/svg"
   xmlns:svg="http://www.w3.org/2000/svg"
   xmlns:rdf="http://www.w3.org/1999/02/22-rdf-syntax-ns#"
   xmlns:cc="http://creativecommons.org/ns#"
   xmlns:dc="http://purl.org/dc/elements/1.1/">
  <sodipodi:namedview
     id="namedview6"
     pagecolor="#ffffff"
     bordercolor="#666666"
     borderopacity="1.0"
     inkscape:pageshadow="2"
     inkscape:pageopacity="0.0"
     inkscape:pagecheckerboard="0"
     showgrid="false"
     inkscape:zoom="54.5625"
     inkscape:cx="3.8671249"
     inkscape:cy="8.0091638"
     inkscape:window-width="1459"
     inkscape:window-height="1082"
     inkscape:window-x="35"
     inkscape:window-y="32"
     inkscape:window-maximized="0"
     inkscape:current-layer="svg4043"
     inkscape:showpageshadow="2"
     inkscape:deskcolor="#d1d1d1" />
  <defs
     id="defs4037" />
  <metadata
     id="metadata4040">
    <rdf:RDF>
      <cc:Work
         rdf:about="">
        <dc:format>image/svg+xml</dc:format>
        <dc:type
           rdf:resource="http://purl.org/dc/dcmitype/StillImage" />
        <dc:title />
      </cc:Work>
    </rdf:RDF>
  </metadata>
  <g
     transform="matrix(0.04532228,0,0,0.04532228,7.9825333,8.0708272)"
     id="g20"
     style="display:inline;fill:#ffffff;fill-opacity:1">
    <g
       style="opacity:1;fill:#ffffff;fill-opacity:1;fill-rule:nonzero;stroke:none;stroke-width:0;stroke-linecap:butt;stroke-linejoin:miter;stroke-miterlimit:10;stroke-dasharray:none"
       transform="matrix(3.89,0,0,3.89,-175.05,-175.05)"
       id="g18">
      <path
         d="m 86.37,51.863 c -1.428,-1.974 -2.09,-4.384 -2.087,-6.82 0,-0.014 0,-0.028 0,-0.043 C 84.283,23.305 66.696,5.717 45,5.717 40.254,5.717 35.706,6.562 31.495,8.105 29.217,8.94 26.721,9.101 24.385,8.443 22.322,7.862 20.118,7.617 17.835,7.774 8.244,8.434 0.523,16.294 0.026,25.895 c -0.237,4.582 1.137,8.833 3.604,12.243 1.428,1.974 2.09,4.384 2.087,6.82 0,0.014 0,0.028 0,0.043 0,21.695 17.588,39.283 39.283,39.283 4.746,0 9.294,-0.845 13.505,-2.388 2.278,-0.835 4.774,-0.996 7.11,-0.338 2.063,0.581 4.267,0.826 6.55,0.669 9.591,-0.66 17.312,-8.52 17.809,-18.12 0.237,-4.583 -1.137,-8.835 -3.604,-12.244 z M 46.438,37.957 c 7.921,1.884 19.89,4.73 19.89,17.915 0,6.495 -3.199,11.45 -9.007,13.951 -4.145,1.785 -8.836,2.026 -12.878,2.026 -12.422,0 -20.267,-9.659 -20.595,-10.07 -2.034,-2.551 -1.616,-6.269 0.936,-8.303 2.551,-2.035 6.269,-1.615 8.303,0.935 0.018,0.022 4.71,5.41 11.356,5.621 8.003,0.254 9.831,-2.127 10.067,-4.16 0.289,-2.482 -1.919,-4.305 -10.808,-6.418 -7.534,-1.792 -18.92,-4.499 -18.92,-16.642 0,-3.781 1.538,-16.119 21.328,-16.119 12.496,0 19.872,9.839 20.18,10.257 1.933,2.629 1.368,6.328 -1.261,8.26 -2.618,1.924 -6.293,1.374 -8.233,-1.224 -0.139,-0.179 -4.361,-4.876 -10.686,-5.477 -4.786,-0.455 -9.511,1.271 -9.511,3.821 0.001,2.702 1.358,3.61 9.839,5.627 z"
         style="opacity:1;fill:#ffffff;fill-opacity:1;fill-rule:nonzero;stroke:none;stroke-width:1;stroke-linecap:butt;stroke-linejoin:miter;stroke-miterlimit:10;stroke-dasharray:none"
         stroke-linecap="round"
         id="path16" />
    </g>
  </g>
</svg>
