<?xml version="1.0" encoding="UTF-8" standalone="no"?>
<svg
   height="16px"
   viewBox="0 0 16 16"
   width="16px"
   version="1.1"
   id="svg6"
   sodipodi:docname="system-software-install.svg"
   inkscape:version="1.2.1 (9c6d41e410, 2022-07-14)"
   xmlns:inkscape="http://www.inkscape.org/namespaces/inkscape"
   xmlns:sodipodi="http://sodipodi.sourceforge.net/DTD/sodipodi-0.dtd"
   xmlns="http://www.w3.org/2000/svg"
   xmlns:svg="http://www.w3.org/2000/svg">
  <defs
     id="defs10" />
  <sodipodi:namedview
     id="namedview8"
     pagecolor="#ffffff"
     bordercolor="#000000"
     borderopacity="0.25"
     inkscape:showpageshadow="2"
     inkscape:pageopacity="0.0"
     inkscape:pagecheckerboard="0"
     inkscape:deskcolor="#d1d1d1"
     showgrid="false"
     inkscape:zoom="64.1875"
     inkscape:cx="8"
     inkscape:cy="8.0155794"
     inkscape:window-width="3440"
     inkscape:window-height="1371"
     inkscape:window-x="0"
     inkscape:window-y="0"
     inkscape:window-maximized="1"
     inkscape:current-layer="svg6" />
  <path
     d="m 1 4 v 8 c 0 1.109375 0.890625 2 2 2 h 10 c 1.109375 0 2 -0.890625 2 -2 v -8 z m 7 1.75 c 0.691406 0 1.25 0.558594 1.25 1.25 s -0.558594 1.25 -1.25 1.25 s -1.25 -0.558594 -1.25 -1.25 s 0.558594 -1.25 1.25 -1.25 z m -2 3 c 0.691406 0 1.25 0.558594 1.25 1.25 s -0.558594 1.25 -1.25 1.25 s -1.25 -0.558594 -1.25 -1.25 s 0.558594 -1.25 1.25 -1.25 z m 4 0 c 0.691406 0 1.25 0.558594 1.25 1.25 s -0.558594 1.25 -1.25 1.25 s -1.25 -0.558594 -1.25 -1.25 s 0.558594 -1.25 1.25 -1.25 z m 0 0"
     id="path2"
     style="fill:#ffffff" />
  <path
     d="m 6 1 l -1 1 v 3 h 2 v -3 h 2 v 3 h 2 v -3 l -1 -1 z m 0 0"
     id="path4"
     style="fill:#ffffff" />
</svg>
